M48
;DRILL file {KiCad 4.0.7} date 03/27/18 19:04:15
;FORMAT={-:-/ absolute / inch / decimal}
FMAT,2
INCH,TZ
T1C0.016
T2C0.030
%
G90
G05
M72
T1
X6.995Y-4.565
X7.025Y-3.545
T2
X6.805Y-4.045
X6.805Y-4.145
X6.805Y-4.245
X6.805Y-4.345
X6.805Y-4.445
X6.805Y-4.545
X6.805Y-4.645
X6.805Y-4.745
X6.895Y-5.06
X6.995Y-5.06
X7.415Y-5.06
X7.45Y-3.74
X7.515Y-5.06
X7.55Y-3.74
X7.615Y-5.06
X7.705Y-4.045
X7.705Y-4.145
X7.705Y-4.245
X7.705Y-4.345
X7.705Y-4.445
X7.705Y-4.545
X7.705Y-4.645
X7.705Y-4.745
T0
M30
