G04 #@! TF.FileFunction,Legend,Top*
%FSLAX46Y46*%
G04 Gerber Fmt 4.6, Leading zero omitted, Abs format (unit mm)*
G04 Created by KiCad (PCBNEW 4.0.7) date 03/27/18 19:04:13*
%MOMM*%
%LPD*%
G01*
G04 APERTURE LIST*
%ADD10C,0.100000*%
%ADD11C,0.300000*%
%ADD12C,0.120000*%
%ADD13C,0.150000*%
G04 APERTURE END LIST*
D10*
D11*
X168674171Y-95979085D02*
X167174171Y-95979085D01*
X167174171Y-95407657D01*
X167245600Y-95264799D01*
X167317029Y-95193371D01*
X167459886Y-95121942D01*
X167674171Y-95121942D01*
X167817029Y-95193371D01*
X167888457Y-95264799D01*
X167959886Y-95407657D01*
X167959886Y-95979085D01*
X168674171Y-94264799D02*
X168602743Y-94407657D01*
X168531314Y-94479085D01*
X168388457Y-94550514D01*
X167959886Y-94550514D01*
X167817029Y-94479085D01*
X167745600Y-94407657D01*
X167674171Y-94264799D01*
X167674171Y-94050514D01*
X167745600Y-93907657D01*
X167817029Y-93836228D01*
X167959886Y-93764799D01*
X168388457Y-93764799D01*
X168531314Y-93836228D01*
X168602743Y-93907657D01*
X168674171Y-94050514D01*
X168674171Y-94264799D01*
X167674171Y-93264799D02*
X168674171Y-92979085D01*
X167959886Y-92693371D01*
X168674171Y-92407656D01*
X167674171Y-92121942D01*
X168602743Y-90979085D02*
X168674171Y-91121942D01*
X168674171Y-91407656D01*
X168602743Y-91550513D01*
X168459886Y-91621942D01*
X167888457Y-91621942D01*
X167745600Y-91550513D01*
X167674171Y-91407656D01*
X167674171Y-91121942D01*
X167745600Y-90979085D01*
X167888457Y-90907656D01*
X168031314Y-90907656D01*
X168174171Y-91621942D01*
X168674171Y-90264799D02*
X167674171Y-90264799D01*
X167959886Y-90264799D02*
X167817029Y-90193371D01*
X167745600Y-90121942D01*
X167674171Y-89979085D01*
X167674171Y-89836228D01*
X184676171Y-139688343D02*
X183176171Y-139688343D01*
X184247600Y-139188343D01*
X183176171Y-138688343D01*
X184676171Y-138688343D01*
X184676171Y-137759771D02*
X184604743Y-137902629D01*
X184533314Y-137974057D01*
X184390457Y-138045486D01*
X183961886Y-138045486D01*
X183819029Y-137974057D01*
X183747600Y-137902629D01*
X183676171Y-137759771D01*
X183676171Y-137545486D01*
X183747600Y-137402629D01*
X183819029Y-137331200D01*
X183961886Y-137259771D01*
X184390457Y-137259771D01*
X184533314Y-137331200D01*
X184604743Y-137402629D01*
X184676171Y-137545486D01*
X184676171Y-137759771D01*
X184676171Y-136616914D02*
X183676171Y-136616914D01*
X183176171Y-136616914D02*
X183247600Y-136688343D01*
X183319029Y-136616914D01*
X183247600Y-136545486D01*
X183176171Y-136616914D01*
X183319029Y-136616914D01*
X184604743Y-135974057D02*
X184676171Y-135831200D01*
X184676171Y-135545485D01*
X184604743Y-135402628D01*
X184461886Y-135331200D01*
X184390457Y-135331200D01*
X184247600Y-135402628D01*
X184176171Y-135545485D01*
X184176171Y-135759771D01*
X184104743Y-135902628D01*
X183961886Y-135974057D01*
X183890457Y-135974057D01*
X183747600Y-135902628D01*
X183676171Y-135759771D01*
X183676171Y-135545485D01*
X183747600Y-135402628D01*
X183676171Y-134902628D02*
X183676171Y-134331199D01*
X183176171Y-134688342D02*
X184461886Y-134688342D01*
X184604743Y-134616914D01*
X184676171Y-134474056D01*
X184676171Y-134331199D01*
X183676171Y-133188342D02*
X184676171Y-133188342D01*
X183676171Y-133831199D02*
X184461886Y-133831199D01*
X184604743Y-133759771D01*
X184676171Y-133616913D01*
X184676171Y-133402628D01*
X184604743Y-133259771D01*
X184533314Y-133188342D01*
X184676171Y-132474056D02*
X183676171Y-132474056D01*
X183961886Y-132474056D02*
X183819029Y-132402628D01*
X183747600Y-132331199D01*
X183676171Y-132188342D01*
X183676171Y-132045485D01*
X184604743Y-130974057D02*
X184676171Y-131116914D01*
X184676171Y-131402628D01*
X184604743Y-131545485D01*
X184461886Y-131616914D01*
X183890457Y-131616914D01*
X183747600Y-131545485D01*
X183676171Y-131402628D01*
X183676171Y-131116914D01*
X183747600Y-130974057D01*
X183890457Y-130902628D01*
X184033314Y-130902628D01*
X184176171Y-131616914D01*
X183142629Y-127565201D02*
X183142629Y-128422344D01*
X181642629Y-127993773D02*
X183142629Y-127993773D01*
X181714057Y-129493772D02*
X181642629Y-129350915D01*
X181642629Y-129065201D01*
X181714057Y-128922344D01*
X181856914Y-128850915D01*
X182428343Y-128850915D01*
X182571200Y-128922344D01*
X182642629Y-129065201D01*
X182642629Y-129350915D01*
X182571200Y-129493772D01*
X182428343Y-129565201D01*
X182285486Y-129565201D01*
X182142629Y-128850915D01*
X181642629Y-130208058D02*
X182642629Y-130208058D01*
X182499771Y-130208058D02*
X182571200Y-130279486D01*
X182642629Y-130422344D01*
X182642629Y-130636629D01*
X182571200Y-130779486D01*
X182428343Y-130850915D01*
X181642629Y-130850915D01*
X182428343Y-130850915D02*
X182571200Y-130922344D01*
X182642629Y-131065201D01*
X182642629Y-131279486D01*
X182571200Y-131422344D01*
X182428343Y-131493772D01*
X181642629Y-131493772D01*
X182642629Y-132208058D02*
X181142629Y-132208058D01*
X182571200Y-132208058D02*
X182642629Y-132350915D01*
X182642629Y-132636629D01*
X182571200Y-132779486D01*
X182499771Y-132850915D01*
X182356914Y-132922344D01*
X181928343Y-132922344D01*
X181785486Y-132850915D01*
X181714057Y-132779486D01*
X181642629Y-132636629D01*
X181642629Y-132350915D01*
X181714057Y-132208058D01*
X181714057Y-134136629D02*
X181642629Y-133993772D01*
X181642629Y-133708058D01*
X181714057Y-133565201D01*
X181856914Y-133493772D01*
X182428343Y-133493772D01*
X182571200Y-133565201D01*
X182642629Y-133708058D01*
X182642629Y-133993772D01*
X182571200Y-134136629D01*
X182428343Y-134208058D01*
X182285486Y-134208058D01*
X182142629Y-133493772D01*
X181642629Y-134850915D02*
X182642629Y-134850915D01*
X182356914Y-134850915D02*
X182499771Y-134922343D01*
X182571200Y-134993772D01*
X182642629Y-135136629D01*
X182642629Y-135279486D01*
X181642629Y-136422343D02*
X182428343Y-136422343D01*
X182571200Y-136350914D01*
X182642629Y-136208057D01*
X182642629Y-135922343D01*
X182571200Y-135779486D01*
X181714057Y-136422343D02*
X181642629Y-136279486D01*
X181642629Y-135922343D01*
X181714057Y-135779486D01*
X181856914Y-135708057D01*
X181999771Y-135708057D01*
X182142629Y-135779486D01*
X182214057Y-135922343D01*
X182214057Y-136279486D01*
X182285486Y-136422343D01*
X182642629Y-136922343D02*
X182642629Y-137493772D01*
X183142629Y-137136629D02*
X181856914Y-137136629D01*
X181714057Y-137208057D01*
X181642629Y-137350915D01*
X181642629Y-137493772D01*
X182642629Y-138636629D02*
X181642629Y-138636629D01*
X182642629Y-137993772D02*
X181856914Y-137993772D01*
X181714057Y-138065200D01*
X181642629Y-138208058D01*
X181642629Y-138422343D01*
X181714057Y-138565200D01*
X181785486Y-138636629D01*
X181642629Y-139350915D02*
X182642629Y-139350915D01*
X182356914Y-139350915D02*
X182499771Y-139422343D01*
X182571200Y-139493772D01*
X182642629Y-139636629D01*
X182642629Y-139779486D01*
X181714057Y-140850914D02*
X181642629Y-140708057D01*
X181642629Y-140422343D01*
X181714057Y-140279486D01*
X181856914Y-140208057D01*
X182428343Y-140208057D01*
X182571200Y-140279486D01*
X182642629Y-140422343D01*
X182642629Y-140708057D01*
X182571200Y-140850914D01*
X182428343Y-140922343D01*
X182285486Y-140922343D01*
X182142629Y-140208057D01*
D12*
X180752000Y-89316000D02*
X181452000Y-89316000D01*
X181452000Y-90516000D02*
X180752000Y-90516000D01*
X174844000Y-92548000D02*
X174844000Y-93248000D01*
X173644000Y-93248000D02*
X173644000Y-92548000D01*
X175342000Y-93380000D02*
X175342000Y-92380000D01*
X176702000Y-92380000D02*
X176702000Y-93380000D01*
X173490000Y-125558000D02*
X174490000Y-125558000D01*
X174490000Y-126918000D02*
X173490000Y-126918000D01*
D13*
X186055000Y-93726000D02*
X194945000Y-93726000D01*
X194945000Y-93726000D02*
X194945000Y-81788000D01*
X193040000Y-96266000D02*
X187960000Y-96266000D01*
X186055000Y-81788000D02*
X194945000Y-81788000D01*
X186055000Y-93726000D02*
X186055000Y-81788000D01*
X193040000Y-93726000D02*
X193040000Y-96266000D01*
X187960000Y-96266000D02*
X187960000Y-93726000D01*
X179027000Y-90897000D02*
X179027000Y-90947000D01*
X183177000Y-90897000D02*
X183177000Y-91042000D01*
X183177000Y-96047000D02*
X183177000Y-95902000D01*
X179027000Y-96047000D02*
X179027000Y-95902000D01*
X179027000Y-90897000D02*
X183177000Y-90897000D01*
X179027000Y-96047000D02*
X183177000Y-96047000D01*
X179027000Y-90947000D02*
X177627000Y-90947000D01*
X196596000Y-129794000D02*
X185166000Y-129794000D01*
X185166000Y-129794000D02*
X185166000Y-141732000D01*
X188976000Y-136144000D02*
X192786000Y-136144000D01*
X191897000Y-133604000D02*
X189865000Y-133604000D01*
X187071000Y-127254000D02*
X194691000Y-127254000D01*
X196596000Y-141732000D02*
X185166000Y-141732000D01*
X189865000Y-136144000D02*
X189865000Y-133604000D01*
X188976000Y-141732000D02*
X188976000Y-136144000D01*
X192786000Y-141732000D02*
X192786000Y-141224000D01*
X196596000Y-129794000D02*
X196596000Y-141732000D01*
X192786000Y-137414000D02*
X192786000Y-136144000D01*
X192786000Y-137414000D02*
X192786000Y-141224000D01*
X191897000Y-136144000D02*
X191897000Y-133604000D01*
X187071000Y-129794000D02*
X187071000Y-127254000D01*
X194691000Y-127254000D02*
X194691000Y-129794000D01*
X180848000Y-129794000D02*
X171958000Y-129794000D01*
X171958000Y-129794000D02*
X171958000Y-141732000D01*
X173863000Y-127254000D02*
X178943000Y-127254000D01*
X180848000Y-141732000D02*
X171958000Y-141732000D01*
X180848000Y-129794000D02*
X180848000Y-141732000D01*
X173863000Y-129794000D02*
X173863000Y-127254000D01*
X178943000Y-127254000D02*
X178943000Y-129794000D01*
D12*
X180752000Y-87792000D02*
X181452000Y-87792000D01*
X181452000Y-88992000D02*
X180752000Y-88992000D01*
D13*
X196103813Y-123952000D02*
G75*
G03X196103813Y-123952000I-2047813J0D01*
G01*
X176545813Y-123952000D02*
G75*
G03X176545813Y-123952000I-2047813J0D01*
G01*
X194818000Y-101854000D02*
X196596000Y-101854000D01*
X171958000Y-101854000D02*
X174498000Y-101854000D01*
X174498000Y-96774000D02*
X194818000Y-96774000D01*
X174498000Y-101854000D02*
X174498000Y-96774000D01*
X194818000Y-96774000D02*
X194818000Y-101854000D01*
X196596000Y-101854000D02*
X196596000Y-126492000D01*
X196596000Y-126492000D02*
X171958000Y-126492000D01*
X171958000Y-126492000D02*
X171958000Y-101854000D01*
D12*
X176651200Y-118608400D02*
X176651200Y-119608400D01*
X175291200Y-119608400D02*
X175291200Y-118608400D01*
X171900400Y-91194400D02*
X169780400Y-91194400D01*
X171900400Y-94394400D02*
X171900400Y-91194400D01*
X169780400Y-91194400D02*
X169780400Y-94394400D01*
X171520400Y-97780400D02*
X171520400Y-98780400D01*
X170160400Y-98780400D02*
X170160400Y-97780400D01*
D13*
X183678534Y-90374743D02*
X183630915Y-90422362D01*
X183488058Y-90469981D01*
X183392820Y-90469981D01*
X183249962Y-90422362D01*
X183154724Y-90327124D01*
X183107105Y-90231886D01*
X183059486Y-90041410D01*
X183059486Y-89898552D01*
X183107105Y-89708076D01*
X183154724Y-89612838D01*
X183249962Y-89517600D01*
X183392820Y-89469981D01*
X183488058Y-89469981D01*
X183630915Y-89517600D01*
X183678534Y-89565219D01*
X184630915Y-90469981D02*
X184059486Y-90469981D01*
X184345200Y-90469981D02*
X184345200Y-89469981D01*
X184249962Y-89612838D01*
X184154724Y-89708076D01*
X184059486Y-89755695D01*
X176429943Y-90082666D02*
X176477562Y-90130285D01*
X176525181Y-90273142D01*
X176525181Y-90368380D01*
X176477562Y-90511238D01*
X176382324Y-90606476D01*
X176287086Y-90654095D01*
X176096610Y-90701714D01*
X175953752Y-90701714D01*
X175763276Y-90654095D01*
X175668038Y-90606476D01*
X175572800Y-90511238D01*
X175525181Y-90368380D01*
X175525181Y-90273142D01*
X175572800Y-90130285D01*
X175620419Y-90082666D01*
X175620419Y-89701714D02*
X175572800Y-89654095D01*
X175525181Y-89558857D01*
X175525181Y-89320761D01*
X175572800Y-89225523D01*
X175620419Y-89177904D01*
X175715657Y-89130285D01*
X175810895Y-89130285D01*
X175953752Y-89177904D01*
X176525181Y-89749333D01*
X176525181Y-89130285D01*
X178374381Y-93046666D02*
X178374381Y-93522857D01*
X177374381Y-93522857D01*
X178374381Y-92189523D02*
X178374381Y-92760952D01*
X178374381Y-92475238D02*
X177374381Y-92475238D01*
X177517238Y-92570476D01*
X177612476Y-92665714D01*
X177660095Y-92760952D01*
X177023734Y-126233181D02*
X176690400Y-125756990D01*
X176452305Y-126233181D02*
X176452305Y-125233181D01*
X176833258Y-125233181D01*
X176928496Y-125280800D01*
X176976115Y-125328419D01*
X177023734Y-125423657D01*
X177023734Y-125566514D01*
X176976115Y-125661752D01*
X176928496Y-125709371D01*
X176833258Y-125756990D01*
X176452305Y-125756990D01*
X177976115Y-126233181D02*
X177404686Y-126233181D01*
X177690400Y-126233181D02*
X177690400Y-125233181D01*
X177595162Y-125376038D01*
X177499924Y-125471276D01*
X177404686Y-125518895D01*
X182016495Y-97140781D02*
X182016495Y-97950305D01*
X182064114Y-98045543D01*
X182111733Y-98093162D01*
X182206971Y-98140781D01*
X182397448Y-98140781D01*
X182492686Y-98093162D01*
X182540305Y-98045543D01*
X182587924Y-97950305D01*
X182587924Y-97140781D01*
X183016495Y-97236019D02*
X183064114Y-97188400D01*
X183159352Y-97140781D01*
X183397448Y-97140781D01*
X183492686Y-97188400D01*
X183540305Y-97236019D01*
X183587924Y-97331257D01*
X183587924Y-97426495D01*
X183540305Y-97569352D01*
X182968876Y-98140781D01*
X183587924Y-98140781D01*
X183056305Y-88844381D02*
X183056305Y-87844381D01*
X183294400Y-87844381D01*
X183437258Y-87892000D01*
X183532496Y-87987238D01*
X183580115Y-88082476D01*
X183627734Y-88272952D01*
X183627734Y-88415810D01*
X183580115Y-88606286D01*
X183532496Y-88701524D01*
X183437258Y-88796762D01*
X183294400Y-88844381D01*
X183056305Y-88844381D01*
X184580115Y-88844381D02*
X184008686Y-88844381D01*
X184294400Y-88844381D02*
X184294400Y-87844381D01*
X184199162Y-87987238D01*
X184103924Y-88082476D01*
X184008686Y-88130095D01*
X174973581Y-119275066D02*
X174497390Y-119608400D01*
X174973581Y-119846495D02*
X173973581Y-119846495D01*
X173973581Y-119465542D01*
X174021200Y-119370304D01*
X174068819Y-119322685D01*
X174164057Y-119275066D01*
X174306914Y-119275066D01*
X174402152Y-119322685D01*
X174449771Y-119370304D01*
X174497390Y-119465542D01*
X174497390Y-119846495D01*
X174068819Y-118894114D02*
X174021200Y-118846495D01*
X173973581Y-118751257D01*
X173973581Y-118513161D01*
X174021200Y-118417923D01*
X174068819Y-118370304D01*
X174164057Y-118322685D01*
X174259295Y-118322685D01*
X174402152Y-118370304D01*
X174973581Y-118941733D01*
X174973581Y-118322685D01*
X173092781Y-94132495D02*
X172092781Y-94132495D01*
X172092781Y-93894400D01*
X172140400Y-93751542D01*
X172235638Y-93656304D01*
X172330876Y-93608685D01*
X172521352Y-93561066D01*
X172664210Y-93561066D01*
X172854686Y-93608685D01*
X172949924Y-93656304D01*
X173045162Y-93751542D01*
X173092781Y-93894400D01*
X173092781Y-94132495D01*
X172188019Y-93180114D02*
X172140400Y-93132495D01*
X172092781Y-93037257D01*
X172092781Y-92799161D01*
X172140400Y-92703923D01*
X172188019Y-92656304D01*
X172283257Y-92608685D01*
X172378495Y-92608685D01*
X172521352Y-92656304D01*
X173092781Y-93227733D01*
X173092781Y-92608685D01*
X169842781Y-98447066D02*
X169366590Y-98780400D01*
X169842781Y-99018495D02*
X168842781Y-99018495D01*
X168842781Y-98637542D01*
X168890400Y-98542304D01*
X168938019Y-98494685D01*
X169033257Y-98447066D01*
X169176114Y-98447066D01*
X169271352Y-98494685D01*
X169318971Y-98542304D01*
X169366590Y-98637542D01*
X169366590Y-99018495D01*
X168842781Y-98113733D02*
X168842781Y-97494685D01*
X169223733Y-97828019D01*
X169223733Y-97685161D01*
X169271352Y-97589923D01*
X169318971Y-97542304D01*
X169414210Y-97494685D01*
X169652305Y-97494685D01*
X169747543Y-97542304D01*
X169795162Y-97589923D01*
X169842781Y-97685161D01*
X169842781Y-97970876D01*
X169795162Y-98066114D01*
X169747543Y-98113733D01*
M02*
