G04 #@! TF.FileFunction,Copper,L1,Top,Signal*
%FSLAX46Y46*%
G04 Gerber Fmt 4.6, Leading zero omitted, Abs format (unit mm)*
G04 Created by KiCad (PCBNEW 4.0.7) date 03/27/18 19:04:13*
%MOMM*%
%LPD*%
G01*
G04 APERTURE LIST*
%ADD10C,0.100000*%
%ADD11R,1.200000X0.750000*%
%ADD12R,0.750000X1.200000*%
%ADD13R,0.900000X1.200000*%
%ADD14R,1.200000X0.900000*%
%ADD15C,1.524000*%
%ADD16R,1.550000X0.600000*%
%ADD17R,1.200000X1.600000*%
%ADD18R,1.600000X1.000000*%
%ADD19C,0.600000*%
%ADD20C,0.406400*%
%ADD21C,0.254000*%
G04 APERTURE END LIST*
D10*
D11*
X180152000Y-89916000D03*
X182052000Y-89916000D03*
D12*
X174244000Y-91948000D03*
X174244000Y-93848000D03*
D13*
X176022000Y-91780000D03*
X176022000Y-93980000D03*
D14*
X175090000Y-126238000D03*
X172890000Y-126238000D03*
D15*
X189230000Y-94996000D03*
X191770000Y-94996000D03*
D16*
X178402000Y-91567000D03*
X178402000Y-92837000D03*
X178402000Y-94107000D03*
X178402000Y-95377000D03*
X183802000Y-95377000D03*
X183802000Y-94107000D03*
X183802000Y-92837000D03*
X183802000Y-91567000D03*
D17*
X181702000Y-94272000D03*
X181702000Y-92672000D03*
X180502000Y-94272000D03*
X180502000Y-92672000D03*
D15*
X193421000Y-128524000D03*
X190881000Y-128524000D03*
X188341000Y-128524000D03*
X177673000Y-128524000D03*
X175133000Y-128524000D03*
D11*
X180152000Y-88392000D03*
X182052000Y-88392000D03*
D15*
X172847000Y-102743000D03*
X172847000Y-105283000D03*
X172847000Y-107823000D03*
X172847000Y-110363000D03*
X172847000Y-112903000D03*
X172847000Y-115443000D03*
X172847000Y-117983000D03*
X172847000Y-120523000D03*
X195707000Y-102743000D03*
X195707000Y-105283000D03*
X195707000Y-107823000D03*
X195707000Y-110363000D03*
X195707000Y-112903000D03*
X195707000Y-115443000D03*
X195707000Y-117983000D03*
X195707000Y-120523000D03*
D13*
X175971200Y-120208400D03*
X175971200Y-118008400D03*
D18*
X170840400Y-91894400D03*
X170840400Y-94894400D03*
D13*
X170840400Y-99380400D03*
X170840400Y-97180400D03*
D19*
X178435000Y-90043000D03*
X177673000Y-115951000D03*
D20*
X178402000Y-91567000D02*
X178402000Y-90076000D01*
X178402000Y-90076000D02*
X178435000Y-90043000D01*
X180152000Y-89916000D02*
X180053000Y-89916000D01*
X180053000Y-89916000D02*
X178402000Y-91567000D01*
X172847000Y-102743000D02*
X171769370Y-102743000D01*
X171769370Y-102743000D02*
X170840400Y-101814030D01*
X170840400Y-101814030D02*
X170840400Y-100386800D01*
X170840400Y-100386800D02*
X170840400Y-99380400D01*
X174244000Y-93848000D02*
X174244000Y-101346000D01*
X174244000Y-101346000D02*
X172847000Y-102743000D01*
X176022000Y-93980000D02*
X174376000Y-93980000D01*
X174376000Y-93980000D02*
X174244000Y-93848000D01*
X178402000Y-94107000D02*
X176149000Y-94107000D01*
X176149000Y-94107000D02*
X176022000Y-93980000D01*
X177220600Y-91440000D02*
X177220600Y-92130600D01*
X177220600Y-89987400D02*
X177220600Y-91440000D01*
X177050600Y-91610000D02*
X176022000Y-91610000D01*
X177220600Y-91440000D02*
X177050600Y-91610000D01*
X178816000Y-88392000D02*
X177220600Y-89987400D01*
X177220600Y-92130600D02*
X177927000Y-92837000D01*
X177927000Y-92837000D02*
X178402000Y-92837000D01*
X180152000Y-88392000D02*
X178816000Y-88392000D01*
X193421000Y-128524000D02*
X193421000Y-127381000D01*
X193421000Y-127381000D02*
X186248400Y-120208400D01*
X186248400Y-120208400D02*
X175971200Y-120208400D01*
X175971200Y-120208400D02*
X175971200Y-125356800D01*
X175971200Y-125356800D02*
X175090000Y-126238000D01*
X175133000Y-128524000D02*
X175133000Y-126281000D01*
X175133000Y-126281000D02*
X175090000Y-126238000D01*
X190754000Y-115443000D02*
X178181000Y-115443000D01*
X178181000Y-115443000D02*
X177673000Y-115951000D01*
X190754000Y-115443000D02*
X195707000Y-115443000D01*
X183802000Y-91567000D02*
X183703000Y-91567000D01*
X183703000Y-91567000D02*
X182052000Y-89916000D01*
X183802000Y-91567000D02*
X183802000Y-95377000D01*
X182052000Y-88392000D02*
X182052000Y-89916000D01*
X175971200Y-118008400D02*
X172872400Y-118008400D01*
X172872400Y-118008400D02*
X172847000Y-117983000D01*
X170840400Y-97180400D02*
X170840400Y-94894400D01*
D21*
G36*
X202295777Y-82534144D02*
X202390539Y-82597461D01*
X202453856Y-82692223D01*
X202490000Y-82873930D01*
X202490000Y-140646070D01*
X202453856Y-140827777D01*
X202390539Y-140922539D01*
X202295777Y-140985856D01*
X202114069Y-141022000D01*
X166185930Y-141022000D01*
X166004223Y-140985856D01*
X165909461Y-140922539D01*
X165846144Y-140827777D01*
X165810000Y-140646069D01*
X165810000Y-137627373D01*
X171629591Y-137627373D01*
X171988123Y-138495086D01*
X172651422Y-139159544D01*
X173518508Y-139519589D01*
X174457373Y-139520409D01*
X175325086Y-139161877D01*
X175989544Y-138498578D01*
X176349589Y-137631492D01*
X176349589Y-137631373D01*
X176457591Y-137631373D01*
X176816123Y-138499086D01*
X177479422Y-139163544D01*
X178346508Y-139523589D01*
X179285373Y-139524409D01*
X180153086Y-139165877D01*
X180817544Y-138502578D01*
X181177589Y-137635492D01*
X181177592Y-137631373D01*
X184835591Y-137631373D01*
X185194123Y-138499086D01*
X185857422Y-139163544D01*
X186724508Y-139523589D01*
X187663373Y-139524409D01*
X188531086Y-139165877D01*
X189195544Y-138502578D01*
X189555589Y-137635492D01*
X189555592Y-137631373D01*
X192205591Y-137631373D01*
X192564123Y-138499086D01*
X193227422Y-139163544D01*
X194094508Y-139523589D01*
X195033373Y-139524409D01*
X195901086Y-139165877D01*
X196565544Y-138502578D01*
X196925589Y-137635492D01*
X196926409Y-136696627D01*
X196567877Y-135828914D01*
X195904578Y-135164456D01*
X195037492Y-134804411D01*
X194098627Y-134803591D01*
X193230914Y-135162123D01*
X192566456Y-135825422D01*
X192206411Y-136692508D01*
X192205591Y-137631373D01*
X189555592Y-137631373D01*
X189556409Y-136696627D01*
X189197877Y-135828914D01*
X188534578Y-135164456D01*
X187667492Y-134804411D01*
X186728627Y-134803591D01*
X185860914Y-135162123D01*
X185196456Y-135825422D01*
X184836411Y-136692508D01*
X184835591Y-137631373D01*
X181177592Y-137631373D01*
X181178409Y-136696627D01*
X180819877Y-135828914D01*
X180156578Y-135164456D01*
X179289492Y-134804411D01*
X178350627Y-134803591D01*
X177482914Y-135162123D01*
X176818456Y-135825422D01*
X176458411Y-136692508D01*
X176457591Y-137631373D01*
X176349589Y-137631373D01*
X176350409Y-136692627D01*
X175991877Y-135824914D01*
X175328578Y-135160456D01*
X174461492Y-134800411D01*
X173522627Y-134799591D01*
X172654914Y-135158123D01*
X171990456Y-135821422D01*
X171630411Y-136688508D01*
X171629591Y-137627373D01*
X165810000Y-137627373D01*
X165810000Y-94394400D01*
X169392960Y-94394400D01*
X169392960Y-95394400D01*
X169437238Y-95629717D01*
X169576310Y-95845841D01*
X169788510Y-95990831D01*
X170002200Y-96034104D01*
X170002200Y-96075616D01*
X169938959Y-96116310D01*
X169793969Y-96328510D01*
X169742960Y-96580400D01*
X169742960Y-97780400D01*
X169787238Y-98015717D01*
X169926310Y-98231841D01*
X169996111Y-98279534D01*
X169938959Y-98316310D01*
X169793969Y-98528510D01*
X169742960Y-98780400D01*
X169742960Y-99980400D01*
X169787238Y-100215717D01*
X169926310Y-100431841D01*
X170002200Y-100483694D01*
X170002200Y-101814030D01*
X170066004Y-102134796D01*
X170247703Y-102406727D01*
X171176673Y-103335697D01*
X171448604Y-103517396D01*
X171695045Y-103566416D01*
X172054630Y-103926629D01*
X172262512Y-104012949D01*
X172056697Y-104097990D01*
X171663371Y-104490630D01*
X171450243Y-105003900D01*
X171449758Y-105559661D01*
X171661990Y-106073303D01*
X172054630Y-106466629D01*
X172262512Y-106552949D01*
X172056697Y-106637990D01*
X171663371Y-107030630D01*
X171450243Y-107543900D01*
X171449758Y-108099661D01*
X171661990Y-108613303D01*
X172054630Y-109006629D01*
X172262512Y-109092949D01*
X172056697Y-109177990D01*
X171663371Y-109570630D01*
X171450243Y-110083900D01*
X171449758Y-110639661D01*
X171661990Y-111153303D01*
X172054630Y-111546629D01*
X172262512Y-111632949D01*
X172056697Y-111717990D01*
X171663371Y-112110630D01*
X171450243Y-112623900D01*
X171449758Y-113179661D01*
X171661990Y-113693303D01*
X172054630Y-114086629D01*
X172262512Y-114172949D01*
X172056697Y-114257990D01*
X171663371Y-114650630D01*
X171450243Y-115163900D01*
X171449758Y-115719661D01*
X171661990Y-116233303D01*
X172054630Y-116626629D01*
X172262512Y-116712949D01*
X172056697Y-116797990D01*
X171663371Y-117190630D01*
X171450243Y-117703900D01*
X171449758Y-118259661D01*
X171661990Y-118773303D01*
X172054630Y-119166629D01*
X172262512Y-119252949D01*
X172056697Y-119337990D01*
X171663371Y-119730630D01*
X171450243Y-120243900D01*
X171449758Y-120799661D01*
X171661990Y-121313303D01*
X172054630Y-121706629D01*
X172567900Y-121919757D01*
X173123661Y-121920242D01*
X173637303Y-121708010D01*
X174030629Y-121315370D01*
X174243757Y-120802100D01*
X174244242Y-120246339D01*
X174032010Y-119732697D01*
X173639370Y-119339371D01*
X173431488Y-119253051D01*
X173637303Y-119168010D01*
X173959275Y-118846600D01*
X174919893Y-118846600D01*
X175057110Y-119059841D01*
X175126911Y-119107534D01*
X175069759Y-119144310D01*
X174924769Y-119356510D01*
X174873760Y-119608400D01*
X174873760Y-120808400D01*
X174918038Y-121043717D01*
X175057110Y-121259841D01*
X175133000Y-121311694D01*
X175133000Y-125009606D01*
X175002046Y-125140560D01*
X174490000Y-125140560D01*
X174254683Y-125184838D01*
X174038559Y-125323910D01*
X173893569Y-125536110D01*
X173842560Y-125788000D01*
X173842560Y-126688000D01*
X173886838Y-126923317D01*
X174025910Y-127139441D01*
X174238110Y-127284431D01*
X174294800Y-127295911D01*
X174294800Y-127386803D01*
X173949371Y-127731630D01*
X173736243Y-128244900D01*
X173735758Y-128800661D01*
X173947990Y-129314303D01*
X174340630Y-129707629D01*
X174853900Y-129920757D01*
X175409661Y-129921242D01*
X175923303Y-129709010D01*
X176316629Y-129316370D01*
X176402949Y-129108488D01*
X176487990Y-129314303D01*
X176880630Y-129707629D01*
X177393900Y-129920757D01*
X177949661Y-129921242D01*
X178463303Y-129709010D01*
X178856629Y-129316370D01*
X179069757Y-128803100D01*
X179070242Y-128247339D01*
X178858010Y-127733697D01*
X178465370Y-127340371D01*
X177952100Y-127127243D01*
X177396339Y-127126758D01*
X176882697Y-127338990D01*
X176489371Y-127731630D01*
X176403051Y-127939512D01*
X176318010Y-127733697D01*
X175971200Y-127386281D01*
X175971200Y-127261637D01*
X176141441Y-127152090D01*
X176286431Y-126939890D01*
X176337440Y-126688000D01*
X176337440Y-126175954D01*
X176563897Y-125949497D01*
X176745596Y-125677566D01*
X176809400Y-125356800D01*
X176809400Y-121313184D01*
X176872641Y-121272490D01*
X177017631Y-121060290D01*
X177020403Y-121046600D01*
X185901206Y-121046600D01*
X192411956Y-127557350D01*
X192237371Y-127731630D01*
X192151051Y-127939512D01*
X192066010Y-127733697D01*
X191673370Y-127340371D01*
X191160100Y-127127243D01*
X190604339Y-127126758D01*
X190090697Y-127338990D01*
X189697371Y-127731630D01*
X189484243Y-128244900D01*
X189483758Y-128800661D01*
X189695990Y-129314303D01*
X190088630Y-129707629D01*
X190601900Y-129920757D01*
X191157661Y-129921242D01*
X191671303Y-129709010D01*
X192064629Y-129316370D01*
X192150949Y-129108488D01*
X192235990Y-129314303D01*
X192628630Y-129707629D01*
X193141900Y-129920757D01*
X193697661Y-129921242D01*
X194211303Y-129709010D01*
X194604629Y-129316370D01*
X194817757Y-128803100D01*
X194818242Y-128247339D01*
X194606010Y-127733697D01*
X194259200Y-127386281D01*
X194259200Y-127381000D01*
X194195396Y-127060235D01*
X194195396Y-127060234D01*
X194013697Y-126788303D01*
X186841097Y-119615703D01*
X186569166Y-119434004D01*
X186248400Y-119370200D01*
X177022507Y-119370200D01*
X176885290Y-119156959D01*
X176815489Y-119109266D01*
X176872641Y-119072490D01*
X177017631Y-118860290D01*
X177068640Y-118608400D01*
X177068640Y-117408400D01*
X177024362Y-117173083D01*
X176885290Y-116956959D01*
X176673090Y-116811969D01*
X176421200Y-116760960D01*
X175521200Y-116760960D01*
X175285883Y-116805238D01*
X175069759Y-116944310D01*
X174924769Y-117156510D01*
X174921997Y-117170200D01*
X174009552Y-117170200D01*
X173639370Y-116799371D01*
X173431488Y-116713051D01*
X173637303Y-116628010D01*
X174030629Y-116235370D01*
X174071821Y-116136167D01*
X176737838Y-116136167D01*
X176879883Y-116479943D01*
X177142673Y-116743192D01*
X177486201Y-116885838D01*
X177858167Y-116886162D01*
X178201943Y-116744117D01*
X178465192Y-116481327D01*
X178548292Y-116281200D01*
X194569803Y-116281200D01*
X194914630Y-116626629D01*
X195122512Y-116712949D01*
X194916697Y-116797990D01*
X194523371Y-117190630D01*
X194310243Y-117703900D01*
X194309758Y-118259661D01*
X194521990Y-118773303D01*
X194914630Y-119166629D01*
X195122512Y-119252949D01*
X194916697Y-119337990D01*
X194523371Y-119730630D01*
X194310243Y-120243900D01*
X194309758Y-120799661D01*
X194521990Y-121313303D01*
X194914630Y-121706629D01*
X195427900Y-121919757D01*
X195983661Y-121920242D01*
X196497303Y-121708010D01*
X196890629Y-121315370D01*
X197103757Y-120802100D01*
X197104242Y-120246339D01*
X196892010Y-119732697D01*
X196499370Y-119339371D01*
X196291488Y-119253051D01*
X196497303Y-119168010D01*
X196890629Y-118775370D01*
X197103757Y-118262100D01*
X197104242Y-117706339D01*
X196892010Y-117192697D01*
X196499370Y-116799371D01*
X196291488Y-116713051D01*
X196497303Y-116628010D01*
X196890629Y-116235370D01*
X197103757Y-115722100D01*
X197104242Y-115166339D01*
X196892010Y-114652697D01*
X196499370Y-114259371D01*
X196291488Y-114173051D01*
X196497303Y-114088010D01*
X196890629Y-113695370D01*
X197103757Y-113182100D01*
X197104242Y-112626339D01*
X196892010Y-112112697D01*
X196499370Y-111719371D01*
X196291488Y-111633051D01*
X196497303Y-111548010D01*
X196890629Y-111155370D01*
X197103757Y-110642100D01*
X197104242Y-110086339D01*
X196892010Y-109572697D01*
X196499370Y-109179371D01*
X196291488Y-109093051D01*
X196497303Y-109008010D01*
X196890629Y-108615370D01*
X197103757Y-108102100D01*
X197104242Y-107546339D01*
X196892010Y-107032697D01*
X196499370Y-106639371D01*
X195986100Y-106426243D01*
X195430339Y-106425758D01*
X194916697Y-106637990D01*
X194523371Y-107030630D01*
X194310243Y-107543900D01*
X194309758Y-108099661D01*
X194521990Y-108613303D01*
X194914630Y-109006629D01*
X195122512Y-109092949D01*
X194916697Y-109177990D01*
X194523371Y-109570630D01*
X194310243Y-110083900D01*
X194309758Y-110639661D01*
X194521990Y-111153303D01*
X194914630Y-111546629D01*
X195122512Y-111632949D01*
X194916697Y-111717990D01*
X194523371Y-112110630D01*
X194310243Y-112623900D01*
X194309758Y-113179661D01*
X194521990Y-113693303D01*
X194914630Y-114086629D01*
X195122512Y-114172949D01*
X194916697Y-114257990D01*
X194569281Y-114604800D01*
X178181000Y-114604800D01*
X177860235Y-114668604D01*
X177860233Y-114668605D01*
X177860234Y-114668605D01*
X177588303Y-114850303D01*
X177376954Y-115061652D01*
X177144057Y-115157883D01*
X176880808Y-115420673D01*
X176738162Y-115764201D01*
X176737838Y-116136167D01*
X174071821Y-116136167D01*
X174243757Y-115722100D01*
X174244242Y-115166339D01*
X174032010Y-114652697D01*
X173639370Y-114259371D01*
X173431488Y-114173051D01*
X173637303Y-114088010D01*
X174030629Y-113695370D01*
X174243757Y-113182100D01*
X174244242Y-112626339D01*
X174032010Y-112112697D01*
X173639370Y-111719371D01*
X173431488Y-111633051D01*
X173637303Y-111548010D01*
X174030629Y-111155370D01*
X174243757Y-110642100D01*
X174244242Y-110086339D01*
X174032010Y-109572697D01*
X173639370Y-109179371D01*
X173431488Y-109093051D01*
X173637303Y-109008010D01*
X174030629Y-108615370D01*
X174243757Y-108102100D01*
X174244242Y-107546339D01*
X174032010Y-107032697D01*
X173639370Y-106639371D01*
X173431488Y-106553051D01*
X173637303Y-106468010D01*
X174030629Y-106075370D01*
X174243757Y-105562100D01*
X174244242Y-105006339D01*
X174032010Y-104492697D01*
X173639370Y-104099371D01*
X173431488Y-104013051D01*
X173637303Y-103928010D01*
X174030629Y-103535370D01*
X174243757Y-103022100D01*
X174243759Y-103019661D01*
X194309758Y-103019661D01*
X194521990Y-103533303D01*
X194914630Y-103926629D01*
X195427900Y-104139757D01*
X195983661Y-104140242D01*
X196497303Y-103928010D01*
X196890629Y-103535370D01*
X197103757Y-103022100D01*
X197104242Y-102466339D01*
X196892010Y-101952697D01*
X196499370Y-101559371D01*
X195986100Y-101346243D01*
X195430339Y-101345758D01*
X194916697Y-101557990D01*
X194523371Y-101950630D01*
X194310243Y-102463900D01*
X194309758Y-103019661D01*
X174243759Y-103019661D01*
X174244185Y-102531209D01*
X174836697Y-101938697D01*
X175018396Y-101666766D01*
X175082200Y-101346000D01*
X175082200Y-94991487D01*
X175107910Y-95031441D01*
X175320110Y-95176431D01*
X175572000Y-95227440D01*
X176472000Y-95227440D01*
X176707317Y-95183162D01*
X176923441Y-95044090D01*
X176991010Y-94945200D01*
X177289886Y-94945200D01*
X177375110Y-95003431D01*
X177627000Y-95054440D01*
X179177000Y-95054440D01*
X179254560Y-95039846D01*
X179254560Y-95072000D01*
X179298838Y-95307317D01*
X179437910Y-95523441D01*
X179650110Y-95668431D01*
X179902000Y-95719440D01*
X182302000Y-95719440D01*
X182537317Y-95675162D01*
X182753441Y-95536090D01*
X182898431Y-95323890D01*
X182908805Y-95272661D01*
X187832758Y-95272661D01*
X188044990Y-95786303D01*
X188437630Y-96179629D01*
X188950900Y-96392757D01*
X189506661Y-96393242D01*
X190020303Y-96181010D01*
X190413629Y-95788370D01*
X190626757Y-95275100D01*
X190627242Y-94719339D01*
X190415010Y-94205697D01*
X190022370Y-93812371D01*
X189509100Y-93599243D01*
X188953339Y-93598758D01*
X188439697Y-93810990D01*
X188046371Y-94203630D01*
X187833243Y-94716900D01*
X187832758Y-95272661D01*
X182908805Y-95272661D01*
X182949440Y-95072000D01*
X182949440Y-91872000D01*
X182905162Y-91636683D01*
X182766090Y-91420559D01*
X182553890Y-91275569D01*
X182302000Y-91224560D01*
X179929834Y-91224560D01*
X180215954Y-90938440D01*
X180752000Y-90938440D01*
X180987317Y-90894162D01*
X181203441Y-90755090D01*
X181348431Y-90542890D01*
X181399440Y-90291000D01*
X181399440Y-89541000D01*
X181355162Y-89305683D01*
X181256857Y-89152913D01*
X181348431Y-89018890D01*
X181399440Y-88767000D01*
X181399440Y-88017000D01*
X181355162Y-87781683D01*
X181216090Y-87565559D01*
X181003890Y-87420569D01*
X180752000Y-87369560D01*
X179552000Y-87369560D01*
X179316683Y-87413838D01*
X179100559Y-87552910D01*
X179099951Y-87553800D01*
X178816000Y-87553800D01*
X178495234Y-87617604D01*
X178223303Y-87799303D01*
X176627903Y-89394703D01*
X176446204Y-89666634D01*
X176428580Y-89755235D01*
X176382400Y-89987400D01*
X176382400Y-90532560D01*
X175572000Y-90532560D01*
X175336683Y-90576838D01*
X175120559Y-90715910D01*
X174975569Y-90928110D01*
X174924560Y-91180000D01*
X174924560Y-92380000D01*
X174968838Y-92615317D01*
X175107910Y-92831441D01*
X175177711Y-92879134D01*
X175148373Y-92898012D01*
X175083090Y-92796559D01*
X174870890Y-92651569D01*
X174619000Y-92600560D01*
X173869000Y-92600560D01*
X173633683Y-92644838D01*
X173417559Y-92783910D01*
X173272569Y-92996110D01*
X173221560Y-93248000D01*
X173221560Y-94448000D01*
X173265838Y-94683317D01*
X173404910Y-94899441D01*
X173405800Y-94900049D01*
X173405800Y-100998806D01*
X173058422Y-101346184D01*
X172570339Y-101345758D01*
X172056697Y-101557990D01*
X171913100Y-101701336D01*
X171678600Y-101466836D01*
X171678600Y-100485184D01*
X171741841Y-100444490D01*
X171886831Y-100232290D01*
X171937840Y-99980400D01*
X171937840Y-98780400D01*
X171893562Y-98545083D01*
X171754490Y-98328959D01*
X171684689Y-98281266D01*
X171741841Y-98244490D01*
X171886831Y-98032290D01*
X171937840Y-97780400D01*
X171937840Y-96580400D01*
X171893562Y-96345083D01*
X171754490Y-96128959D01*
X171678600Y-96077106D01*
X171678600Y-96034652D01*
X171875717Y-95997562D01*
X172091841Y-95858490D01*
X172236831Y-95646290D01*
X172287840Y-95394400D01*
X172287840Y-94394400D01*
X172243562Y-94159083D01*
X172104490Y-93942959D01*
X171892290Y-93797969D01*
X171640400Y-93746960D01*
X170040400Y-93746960D01*
X169805083Y-93791238D01*
X169588959Y-93930310D01*
X169443969Y-94142510D01*
X169392960Y-94394400D01*
X165810000Y-94394400D01*
X165810000Y-86823373D01*
X185724591Y-86823373D01*
X186083123Y-87691086D01*
X186746422Y-88355544D01*
X187613508Y-88715589D01*
X188552373Y-88716409D01*
X189420086Y-88357877D01*
X190084544Y-87694578D01*
X190444589Y-86827492D01*
X190444589Y-86827373D01*
X190552591Y-86827373D01*
X190911123Y-87695086D01*
X191574422Y-88359544D01*
X192441508Y-88719589D01*
X193380373Y-88720409D01*
X194248086Y-88361877D01*
X194912544Y-87698578D01*
X195272589Y-86831492D01*
X195273409Y-85892627D01*
X194914877Y-85024914D01*
X194251578Y-84360456D01*
X193384492Y-84000411D01*
X192445627Y-83999591D01*
X191577914Y-84358123D01*
X190913456Y-85021422D01*
X190553411Y-85888508D01*
X190552591Y-86827373D01*
X190444589Y-86827373D01*
X190445409Y-85888627D01*
X190086877Y-85020914D01*
X189423578Y-84356456D01*
X188556492Y-83996411D01*
X187617627Y-83995591D01*
X186749914Y-84354123D01*
X186085456Y-85017422D01*
X185725411Y-85884508D01*
X185724591Y-86823373D01*
X165810000Y-86823373D01*
X165810000Y-82873931D01*
X165846144Y-82692223D01*
X165909461Y-82597461D01*
X166004223Y-82534144D01*
X166185930Y-82498000D01*
X202114069Y-82498000D01*
X202295777Y-82534144D01*
X202295777Y-82534144D01*
G37*
X202295777Y-82534144D02*
X202390539Y-82597461D01*
X202453856Y-82692223D01*
X202490000Y-82873930D01*
X202490000Y-140646070D01*
X202453856Y-140827777D01*
X202390539Y-140922539D01*
X202295777Y-140985856D01*
X202114069Y-141022000D01*
X166185930Y-141022000D01*
X166004223Y-140985856D01*
X165909461Y-140922539D01*
X165846144Y-140827777D01*
X165810000Y-140646069D01*
X165810000Y-137627373D01*
X171629591Y-137627373D01*
X171988123Y-138495086D01*
X172651422Y-139159544D01*
X173518508Y-139519589D01*
X174457373Y-139520409D01*
X175325086Y-139161877D01*
X175989544Y-138498578D01*
X176349589Y-137631492D01*
X176349589Y-137631373D01*
X176457591Y-137631373D01*
X176816123Y-138499086D01*
X177479422Y-139163544D01*
X178346508Y-139523589D01*
X179285373Y-139524409D01*
X180153086Y-139165877D01*
X180817544Y-138502578D01*
X181177589Y-137635492D01*
X181177592Y-137631373D01*
X184835591Y-137631373D01*
X185194123Y-138499086D01*
X185857422Y-139163544D01*
X186724508Y-139523589D01*
X187663373Y-139524409D01*
X188531086Y-139165877D01*
X189195544Y-138502578D01*
X189555589Y-137635492D01*
X189555592Y-137631373D01*
X192205591Y-137631373D01*
X192564123Y-138499086D01*
X193227422Y-139163544D01*
X194094508Y-139523589D01*
X195033373Y-139524409D01*
X195901086Y-139165877D01*
X196565544Y-138502578D01*
X196925589Y-137635492D01*
X196926409Y-136696627D01*
X196567877Y-135828914D01*
X195904578Y-135164456D01*
X195037492Y-134804411D01*
X194098627Y-134803591D01*
X193230914Y-135162123D01*
X192566456Y-135825422D01*
X192206411Y-136692508D01*
X192205591Y-137631373D01*
X189555592Y-137631373D01*
X189556409Y-136696627D01*
X189197877Y-135828914D01*
X188534578Y-135164456D01*
X187667492Y-134804411D01*
X186728627Y-134803591D01*
X185860914Y-135162123D01*
X185196456Y-135825422D01*
X184836411Y-136692508D01*
X184835591Y-137631373D01*
X181177592Y-137631373D01*
X181178409Y-136696627D01*
X180819877Y-135828914D01*
X180156578Y-135164456D01*
X179289492Y-134804411D01*
X178350627Y-134803591D01*
X177482914Y-135162123D01*
X176818456Y-135825422D01*
X176458411Y-136692508D01*
X176457591Y-137631373D01*
X176349589Y-137631373D01*
X176350409Y-136692627D01*
X175991877Y-135824914D01*
X175328578Y-135160456D01*
X174461492Y-134800411D01*
X173522627Y-134799591D01*
X172654914Y-135158123D01*
X171990456Y-135821422D01*
X171630411Y-136688508D01*
X171629591Y-137627373D01*
X165810000Y-137627373D01*
X165810000Y-94394400D01*
X169392960Y-94394400D01*
X169392960Y-95394400D01*
X169437238Y-95629717D01*
X169576310Y-95845841D01*
X169788510Y-95990831D01*
X170002200Y-96034104D01*
X170002200Y-96075616D01*
X169938959Y-96116310D01*
X169793969Y-96328510D01*
X169742960Y-96580400D01*
X169742960Y-97780400D01*
X169787238Y-98015717D01*
X169926310Y-98231841D01*
X169996111Y-98279534D01*
X169938959Y-98316310D01*
X169793969Y-98528510D01*
X169742960Y-98780400D01*
X169742960Y-99980400D01*
X169787238Y-100215717D01*
X169926310Y-100431841D01*
X170002200Y-100483694D01*
X170002200Y-101814030D01*
X170066004Y-102134796D01*
X170247703Y-102406727D01*
X171176673Y-103335697D01*
X171448604Y-103517396D01*
X171695045Y-103566416D01*
X172054630Y-103926629D01*
X172262512Y-104012949D01*
X172056697Y-104097990D01*
X171663371Y-104490630D01*
X171450243Y-105003900D01*
X171449758Y-105559661D01*
X171661990Y-106073303D01*
X172054630Y-106466629D01*
X172262512Y-106552949D01*
X172056697Y-106637990D01*
X171663371Y-107030630D01*
X171450243Y-107543900D01*
X171449758Y-108099661D01*
X171661990Y-108613303D01*
X172054630Y-109006629D01*
X172262512Y-109092949D01*
X172056697Y-109177990D01*
X171663371Y-109570630D01*
X171450243Y-110083900D01*
X171449758Y-110639661D01*
X171661990Y-111153303D01*
X172054630Y-111546629D01*
X172262512Y-111632949D01*
X172056697Y-111717990D01*
X171663371Y-112110630D01*
X171450243Y-112623900D01*
X171449758Y-113179661D01*
X171661990Y-113693303D01*
X172054630Y-114086629D01*
X172262512Y-114172949D01*
X172056697Y-114257990D01*
X171663371Y-114650630D01*
X171450243Y-115163900D01*
X171449758Y-115719661D01*
X171661990Y-116233303D01*
X172054630Y-116626629D01*
X172262512Y-116712949D01*
X172056697Y-116797990D01*
X171663371Y-117190630D01*
X171450243Y-117703900D01*
X171449758Y-118259661D01*
X171661990Y-118773303D01*
X172054630Y-119166629D01*
X172262512Y-119252949D01*
X172056697Y-119337990D01*
X171663371Y-119730630D01*
X171450243Y-120243900D01*
X171449758Y-120799661D01*
X171661990Y-121313303D01*
X172054630Y-121706629D01*
X172567900Y-121919757D01*
X173123661Y-121920242D01*
X173637303Y-121708010D01*
X174030629Y-121315370D01*
X174243757Y-120802100D01*
X174244242Y-120246339D01*
X174032010Y-119732697D01*
X173639370Y-119339371D01*
X173431488Y-119253051D01*
X173637303Y-119168010D01*
X173959275Y-118846600D01*
X174919893Y-118846600D01*
X175057110Y-119059841D01*
X175126911Y-119107534D01*
X175069759Y-119144310D01*
X174924769Y-119356510D01*
X174873760Y-119608400D01*
X174873760Y-120808400D01*
X174918038Y-121043717D01*
X175057110Y-121259841D01*
X175133000Y-121311694D01*
X175133000Y-125009606D01*
X175002046Y-125140560D01*
X174490000Y-125140560D01*
X174254683Y-125184838D01*
X174038559Y-125323910D01*
X173893569Y-125536110D01*
X173842560Y-125788000D01*
X173842560Y-126688000D01*
X173886838Y-126923317D01*
X174025910Y-127139441D01*
X174238110Y-127284431D01*
X174294800Y-127295911D01*
X174294800Y-127386803D01*
X173949371Y-127731630D01*
X173736243Y-128244900D01*
X173735758Y-128800661D01*
X173947990Y-129314303D01*
X174340630Y-129707629D01*
X174853900Y-129920757D01*
X175409661Y-129921242D01*
X175923303Y-129709010D01*
X176316629Y-129316370D01*
X176402949Y-129108488D01*
X176487990Y-129314303D01*
X176880630Y-129707629D01*
X177393900Y-129920757D01*
X177949661Y-129921242D01*
X178463303Y-129709010D01*
X178856629Y-129316370D01*
X179069757Y-128803100D01*
X179070242Y-128247339D01*
X178858010Y-127733697D01*
X178465370Y-127340371D01*
X177952100Y-127127243D01*
X177396339Y-127126758D01*
X176882697Y-127338990D01*
X176489371Y-127731630D01*
X176403051Y-127939512D01*
X176318010Y-127733697D01*
X175971200Y-127386281D01*
X175971200Y-127261637D01*
X176141441Y-127152090D01*
X176286431Y-126939890D01*
X176337440Y-126688000D01*
X176337440Y-126175954D01*
X176563897Y-125949497D01*
X176745596Y-125677566D01*
X176809400Y-125356800D01*
X176809400Y-121313184D01*
X176872641Y-121272490D01*
X177017631Y-121060290D01*
X177020403Y-121046600D01*
X185901206Y-121046600D01*
X192411956Y-127557350D01*
X192237371Y-127731630D01*
X192151051Y-127939512D01*
X192066010Y-127733697D01*
X191673370Y-127340371D01*
X191160100Y-127127243D01*
X190604339Y-127126758D01*
X190090697Y-127338990D01*
X189697371Y-127731630D01*
X189484243Y-128244900D01*
X189483758Y-128800661D01*
X189695990Y-129314303D01*
X190088630Y-129707629D01*
X190601900Y-129920757D01*
X191157661Y-129921242D01*
X191671303Y-129709010D01*
X192064629Y-129316370D01*
X192150949Y-129108488D01*
X192235990Y-129314303D01*
X192628630Y-129707629D01*
X193141900Y-129920757D01*
X193697661Y-129921242D01*
X194211303Y-129709010D01*
X194604629Y-129316370D01*
X194817757Y-128803100D01*
X194818242Y-128247339D01*
X194606010Y-127733697D01*
X194259200Y-127386281D01*
X194259200Y-127381000D01*
X194195396Y-127060235D01*
X194195396Y-127060234D01*
X194013697Y-126788303D01*
X186841097Y-119615703D01*
X186569166Y-119434004D01*
X186248400Y-119370200D01*
X177022507Y-119370200D01*
X176885290Y-119156959D01*
X176815489Y-119109266D01*
X176872641Y-119072490D01*
X177017631Y-118860290D01*
X177068640Y-118608400D01*
X177068640Y-117408400D01*
X177024362Y-117173083D01*
X176885290Y-116956959D01*
X176673090Y-116811969D01*
X176421200Y-116760960D01*
X175521200Y-116760960D01*
X175285883Y-116805238D01*
X175069759Y-116944310D01*
X174924769Y-117156510D01*
X174921997Y-117170200D01*
X174009552Y-117170200D01*
X173639370Y-116799371D01*
X173431488Y-116713051D01*
X173637303Y-116628010D01*
X174030629Y-116235370D01*
X174071821Y-116136167D01*
X176737838Y-116136167D01*
X176879883Y-116479943D01*
X177142673Y-116743192D01*
X177486201Y-116885838D01*
X177858167Y-116886162D01*
X178201943Y-116744117D01*
X178465192Y-116481327D01*
X178548292Y-116281200D01*
X194569803Y-116281200D01*
X194914630Y-116626629D01*
X195122512Y-116712949D01*
X194916697Y-116797990D01*
X194523371Y-117190630D01*
X194310243Y-117703900D01*
X194309758Y-118259661D01*
X194521990Y-118773303D01*
X194914630Y-119166629D01*
X195122512Y-119252949D01*
X194916697Y-119337990D01*
X194523371Y-119730630D01*
X194310243Y-120243900D01*
X194309758Y-120799661D01*
X194521990Y-121313303D01*
X194914630Y-121706629D01*
X195427900Y-121919757D01*
X195983661Y-121920242D01*
X196497303Y-121708010D01*
X196890629Y-121315370D01*
X197103757Y-120802100D01*
X197104242Y-120246339D01*
X196892010Y-119732697D01*
X196499370Y-119339371D01*
X196291488Y-119253051D01*
X196497303Y-119168010D01*
X196890629Y-118775370D01*
X197103757Y-118262100D01*
X197104242Y-117706339D01*
X196892010Y-117192697D01*
X196499370Y-116799371D01*
X196291488Y-116713051D01*
X196497303Y-116628010D01*
X196890629Y-116235370D01*
X197103757Y-115722100D01*
X197104242Y-115166339D01*
X196892010Y-114652697D01*
X196499370Y-114259371D01*
X196291488Y-114173051D01*
X196497303Y-114088010D01*
X196890629Y-113695370D01*
X197103757Y-113182100D01*
X197104242Y-112626339D01*
X196892010Y-112112697D01*
X196499370Y-111719371D01*
X196291488Y-111633051D01*
X196497303Y-111548010D01*
X196890629Y-111155370D01*
X197103757Y-110642100D01*
X197104242Y-110086339D01*
X196892010Y-109572697D01*
X196499370Y-109179371D01*
X196291488Y-109093051D01*
X196497303Y-109008010D01*
X196890629Y-108615370D01*
X197103757Y-108102100D01*
X197104242Y-107546339D01*
X196892010Y-107032697D01*
X196499370Y-106639371D01*
X195986100Y-106426243D01*
X195430339Y-106425758D01*
X194916697Y-106637990D01*
X194523371Y-107030630D01*
X194310243Y-107543900D01*
X194309758Y-108099661D01*
X194521990Y-108613303D01*
X194914630Y-109006629D01*
X195122512Y-109092949D01*
X194916697Y-109177990D01*
X194523371Y-109570630D01*
X194310243Y-110083900D01*
X194309758Y-110639661D01*
X194521990Y-111153303D01*
X194914630Y-111546629D01*
X195122512Y-111632949D01*
X194916697Y-111717990D01*
X194523371Y-112110630D01*
X194310243Y-112623900D01*
X194309758Y-113179661D01*
X194521990Y-113693303D01*
X194914630Y-114086629D01*
X195122512Y-114172949D01*
X194916697Y-114257990D01*
X194569281Y-114604800D01*
X178181000Y-114604800D01*
X177860235Y-114668604D01*
X177860233Y-114668605D01*
X177860234Y-114668605D01*
X177588303Y-114850303D01*
X177376954Y-115061652D01*
X177144057Y-115157883D01*
X176880808Y-115420673D01*
X176738162Y-115764201D01*
X176737838Y-116136167D01*
X174071821Y-116136167D01*
X174243757Y-115722100D01*
X174244242Y-115166339D01*
X174032010Y-114652697D01*
X173639370Y-114259371D01*
X173431488Y-114173051D01*
X173637303Y-114088010D01*
X174030629Y-113695370D01*
X174243757Y-113182100D01*
X174244242Y-112626339D01*
X174032010Y-112112697D01*
X173639370Y-111719371D01*
X173431488Y-111633051D01*
X173637303Y-111548010D01*
X174030629Y-111155370D01*
X174243757Y-110642100D01*
X174244242Y-110086339D01*
X174032010Y-109572697D01*
X173639370Y-109179371D01*
X173431488Y-109093051D01*
X173637303Y-109008010D01*
X174030629Y-108615370D01*
X174243757Y-108102100D01*
X174244242Y-107546339D01*
X174032010Y-107032697D01*
X173639370Y-106639371D01*
X173431488Y-106553051D01*
X173637303Y-106468010D01*
X174030629Y-106075370D01*
X174243757Y-105562100D01*
X174244242Y-105006339D01*
X174032010Y-104492697D01*
X173639370Y-104099371D01*
X173431488Y-104013051D01*
X173637303Y-103928010D01*
X174030629Y-103535370D01*
X174243757Y-103022100D01*
X174243759Y-103019661D01*
X194309758Y-103019661D01*
X194521990Y-103533303D01*
X194914630Y-103926629D01*
X195427900Y-104139757D01*
X195983661Y-104140242D01*
X196497303Y-103928010D01*
X196890629Y-103535370D01*
X197103757Y-103022100D01*
X197104242Y-102466339D01*
X196892010Y-101952697D01*
X196499370Y-101559371D01*
X195986100Y-101346243D01*
X195430339Y-101345758D01*
X194916697Y-101557990D01*
X194523371Y-101950630D01*
X194310243Y-102463900D01*
X194309758Y-103019661D01*
X174243759Y-103019661D01*
X174244185Y-102531209D01*
X174836697Y-101938697D01*
X175018396Y-101666766D01*
X175082200Y-101346000D01*
X175082200Y-94991487D01*
X175107910Y-95031441D01*
X175320110Y-95176431D01*
X175572000Y-95227440D01*
X176472000Y-95227440D01*
X176707317Y-95183162D01*
X176923441Y-95044090D01*
X176991010Y-94945200D01*
X177289886Y-94945200D01*
X177375110Y-95003431D01*
X177627000Y-95054440D01*
X179177000Y-95054440D01*
X179254560Y-95039846D01*
X179254560Y-95072000D01*
X179298838Y-95307317D01*
X179437910Y-95523441D01*
X179650110Y-95668431D01*
X179902000Y-95719440D01*
X182302000Y-95719440D01*
X182537317Y-95675162D01*
X182753441Y-95536090D01*
X182898431Y-95323890D01*
X182908805Y-95272661D01*
X187832758Y-95272661D01*
X188044990Y-95786303D01*
X188437630Y-96179629D01*
X188950900Y-96392757D01*
X189506661Y-96393242D01*
X190020303Y-96181010D01*
X190413629Y-95788370D01*
X190626757Y-95275100D01*
X190627242Y-94719339D01*
X190415010Y-94205697D01*
X190022370Y-93812371D01*
X189509100Y-93599243D01*
X188953339Y-93598758D01*
X188439697Y-93810990D01*
X188046371Y-94203630D01*
X187833243Y-94716900D01*
X187832758Y-95272661D01*
X182908805Y-95272661D01*
X182949440Y-95072000D01*
X182949440Y-91872000D01*
X182905162Y-91636683D01*
X182766090Y-91420559D01*
X182553890Y-91275569D01*
X182302000Y-91224560D01*
X179929834Y-91224560D01*
X180215954Y-90938440D01*
X180752000Y-90938440D01*
X180987317Y-90894162D01*
X181203441Y-90755090D01*
X181348431Y-90542890D01*
X181399440Y-90291000D01*
X181399440Y-89541000D01*
X181355162Y-89305683D01*
X181256857Y-89152913D01*
X181348431Y-89018890D01*
X181399440Y-88767000D01*
X181399440Y-88017000D01*
X181355162Y-87781683D01*
X181216090Y-87565559D01*
X181003890Y-87420569D01*
X180752000Y-87369560D01*
X179552000Y-87369560D01*
X179316683Y-87413838D01*
X179100559Y-87552910D01*
X179099951Y-87553800D01*
X178816000Y-87553800D01*
X178495234Y-87617604D01*
X178223303Y-87799303D01*
X176627903Y-89394703D01*
X176446204Y-89666634D01*
X176428580Y-89755235D01*
X176382400Y-89987400D01*
X176382400Y-90532560D01*
X175572000Y-90532560D01*
X175336683Y-90576838D01*
X175120559Y-90715910D01*
X174975569Y-90928110D01*
X174924560Y-91180000D01*
X174924560Y-92380000D01*
X174968838Y-92615317D01*
X175107910Y-92831441D01*
X175177711Y-92879134D01*
X175148373Y-92898012D01*
X175083090Y-92796559D01*
X174870890Y-92651569D01*
X174619000Y-92600560D01*
X173869000Y-92600560D01*
X173633683Y-92644838D01*
X173417559Y-92783910D01*
X173272569Y-92996110D01*
X173221560Y-93248000D01*
X173221560Y-94448000D01*
X173265838Y-94683317D01*
X173404910Y-94899441D01*
X173405800Y-94900049D01*
X173405800Y-100998806D01*
X173058422Y-101346184D01*
X172570339Y-101345758D01*
X172056697Y-101557990D01*
X171913100Y-101701336D01*
X171678600Y-101466836D01*
X171678600Y-100485184D01*
X171741841Y-100444490D01*
X171886831Y-100232290D01*
X171937840Y-99980400D01*
X171937840Y-98780400D01*
X171893562Y-98545083D01*
X171754490Y-98328959D01*
X171684689Y-98281266D01*
X171741841Y-98244490D01*
X171886831Y-98032290D01*
X171937840Y-97780400D01*
X171937840Y-96580400D01*
X171893562Y-96345083D01*
X171754490Y-96128959D01*
X171678600Y-96077106D01*
X171678600Y-96034652D01*
X171875717Y-95997562D01*
X172091841Y-95858490D01*
X172236831Y-95646290D01*
X172287840Y-95394400D01*
X172287840Y-94394400D01*
X172243562Y-94159083D01*
X172104490Y-93942959D01*
X171892290Y-93797969D01*
X171640400Y-93746960D01*
X170040400Y-93746960D01*
X169805083Y-93791238D01*
X169588959Y-93930310D01*
X169443969Y-94142510D01*
X169392960Y-94394400D01*
X165810000Y-94394400D01*
X165810000Y-86823373D01*
X185724591Y-86823373D01*
X186083123Y-87691086D01*
X186746422Y-88355544D01*
X187613508Y-88715589D01*
X188552373Y-88716409D01*
X189420086Y-88357877D01*
X190084544Y-87694578D01*
X190444589Y-86827492D01*
X190444589Y-86827373D01*
X190552591Y-86827373D01*
X190911123Y-87695086D01*
X191574422Y-88359544D01*
X192441508Y-88719589D01*
X193380373Y-88720409D01*
X194248086Y-88361877D01*
X194912544Y-87698578D01*
X195272589Y-86831492D01*
X195273409Y-85892627D01*
X194914877Y-85024914D01*
X194251578Y-84360456D01*
X193384492Y-84000411D01*
X192445627Y-83999591D01*
X191577914Y-84358123D01*
X190913456Y-85021422D01*
X190553411Y-85888508D01*
X190552591Y-86827373D01*
X190444589Y-86827373D01*
X190445409Y-85888627D01*
X190086877Y-85020914D01*
X189423578Y-84356456D01*
X188556492Y-83996411D01*
X187617627Y-83995591D01*
X186749914Y-84354123D01*
X186085456Y-85017422D01*
X185725411Y-85884508D01*
X185724591Y-86823373D01*
X165810000Y-86823373D01*
X165810000Y-82873931D01*
X165846144Y-82692223D01*
X165909461Y-82597461D01*
X166004223Y-82534144D01*
X166185930Y-82498000D01*
X202114069Y-82498000D01*
X202295777Y-82534144D01*
M02*
