G04 #@! TF.FileFunction,Soldermask,Top*
%FSLAX46Y46*%
G04 Gerber Fmt 4.6, Leading zero omitted, Abs format (unit mm)*
G04 Created by KiCad (PCBNEW 4.0.7) date 03/27/18 19:04:13*
%MOMM*%
%LPD*%
G01*
G04 APERTURE LIST*
%ADD10C,0.100000*%
%ADD11R,1.600000X1.150000*%
%ADD12R,1.150000X1.600000*%
%ADD13R,1.300000X1.600000*%
%ADD14R,1.600000X1.300000*%
%ADD15C,3.850000*%
%ADD16C,1.924000*%
%ADD17R,1.950000X1.000000*%
%ADD18R,1.600000X2.000000*%
%ADD19R,2.000000X1.400000*%
G04 APERTURE END LIST*
D10*
D11*
X180152000Y-89916000D03*
X182052000Y-89916000D03*
D12*
X174244000Y-91948000D03*
X174244000Y-93848000D03*
D13*
X176022000Y-91780000D03*
X176022000Y-93980000D03*
D14*
X175090000Y-126238000D03*
X172890000Y-126238000D03*
D15*
X188085000Y-86356000D03*
D16*
X189230000Y-94996000D03*
X191770000Y-94996000D03*
D15*
X192913000Y-86360000D03*
D17*
X178402000Y-91567000D03*
X178402000Y-92837000D03*
X178402000Y-94107000D03*
X178402000Y-95377000D03*
X183802000Y-95377000D03*
X183802000Y-94107000D03*
X183802000Y-92837000D03*
X183802000Y-91567000D03*
D18*
X181702000Y-94272000D03*
X181702000Y-92672000D03*
X180502000Y-94272000D03*
X180502000Y-92672000D03*
D15*
X194566000Y-137164000D03*
D16*
X193421000Y-128524000D03*
X190881000Y-128524000D03*
X188341000Y-128524000D03*
D15*
X187196000Y-137164000D03*
X178818000Y-137164000D03*
D16*
X177673000Y-128524000D03*
X175133000Y-128524000D03*
D15*
X173990000Y-137160000D03*
D11*
X180152000Y-88392000D03*
X182052000Y-88392000D03*
D16*
X172847000Y-102743000D03*
X172847000Y-105283000D03*
X172847000Y-107823000D03*
X172847000Y-110363000D03*
X172847000Y-112903000D03*
X172847000Y-115443000D03*
X172847000Y-117983000D03*
X172847000Y-120523000D03*
X195707000Y-102743000D03*
X195707000Y-105283000D03*
X195707000Y-107823000D03*
X195707000Y-110363000D03*
X195707000Y-112903000D03*
X195707000Y-115443000D03*
X195707000Y-117983000D03*
X195707000Y-120523000D03*
D13*
X175971200Y-120208400D03*
X175971200Y-118008400D03*
D19*
X170840400Y-91894400D03*
X170840400Y-94894400D03*
D13*
X170840400Y-99380400D03*
X170840400Y-97180400D03*
M02*
