M48
;DRILL file {KiCad 4.0.7} date 04/29/18 15:59:51
;FORMAT={-:-/ absolute / inch / decimal}
FMAT,2
INCH,TZ
T1C0.016
T2C0.030
%
G90
G05
M72
T1
X7.025Y-3.545
T2
X6.805Y-4.045
X6.805Y-4.145
X6.805Y-4.245
X6.805Y-4.345
X6.805Y-4.445
X6.805Y-4.545
X6.805Y-4.645
X6.805Y-4.745
X6.8175Y-5.0575
X6.9175Y-5.0575
X7.0175Y-5.0575
X7.45Y-3.695
X7.4875Y-5.0575
X7.55Y-3.695
X7.5875Y-5.0575
X7.6875Y-5.0575
X7.705Y-4.045
X7.705Y-4.145
X7.705Y-4.245
X7.705Y-4.345
X7.705Y-4.445
X7.705Y-4.545
X7.705Y-4.645
X7.705Y-4.745
T0
M30
