G04 #@! TF.FileFunction,Soldermask,Top*
%FSLAX46Y46*%
G04 Gerber Fmt 4.6, Leading zero omitted, Abs format (unit mm)*
G04 Created by KiCad (PCBNEW 4.0.7) date 04/29/18 15:59:50*
%MOMM*%
%LPD*%
G01*
G04 APERTURE LIST*
%ADD10C,0.100000*%
%ADD11R,1.600000X1.150000*%
%ADD12R,1.150000X1.600000*%
%ADD13R,1.300000X1.600000*%
%ADD14C,3.850000*%
%ADD15C,1.924000*%
%ADD16R,1.950000X1.000000*%
%ADD17R,1.600000X2.000000*%
%ADD18R,2.000000X1.400000*%
G04 APERTURE END LIST*
D10*
D11*
X180152000Y-89916000D03*
X182052000Y-89916000D03*
D12*
X173355000Y-92077500D03*
X173355000Y-93977500D03*
D13*
X176022000Y-91780000D03*
X176022000Y-93980000D03*
X191897000Y-120183000D03*
X191897000Y-117983000D03*
D14*
X188085000Y-85213000D03*
D15*
X189230000Y-93853000D03*
X191770000Y-93853000D03*
D14*
X192913000Y-85217000D03*
D16*
X178402000Y-91567000D03*
X178402000Y-92837000D03*
X178402000Y-94107000D03*
X178402000Y-95377000D03*
X183802000Y-95377000D03*
X183802000Y-94107000D03*
X183802000Y-92837000D03*
X183802000Y-91567000D03*
D17*
X181702000Y-94272000D03*
X181702000Y-92672000D03*
X180502000Y-94272000D03*
X180502000Y-92672000D03*
D14*
X196407500Y-137100500D03*
D15*
X195262500Y-128460500D03*
X192722500Y-128460500D03*
X190182500Y-128460500D03*
D14*
X189037500Y-137100500D03*
D11*
X180152000Y-88392000D03*
X182052000Y-88392000D03*
D15*
X172847000Y-102743000D03*
X172847000Y-105283000D03*
X172847000Y-107823000D03*
X172847000Y-110363000D03*
X172847000Y-112903000D03*
X172847000Y-115443000D03*
X172847000Y-117983000D03*
X172847000Y-120523000D03*
X195707000Y-102743000D03*
X195707000Y-105283000D03*
X195707000Y-107823000D03*
X195707000Y-110363000D03*
X195707000Y-112903000D03*
X195707000Y-115443000D03*
X195707000Y-117983000D03*
X195707000Y-120523000D03*
D18*
X170840400Y-91894400D03*
X170840400Y-94894400D03*
D13*
X170840400Y-99380400D03*
X170840400Y-97180400D03*
D15*
X178244500Y-128460500D03*
X175704500Y-128460500D03*
X173164500Y-128460500D03*
D14*
X179514500Y-137096500D03*
X171894500Y-137096500D03*
M02*
