G04 #@! TF.FileFunction,Copper,L2,Bot,Signal*
%FSLAX46Y46*%
G04 Gerber Fmt 4.6, Leading zero omitted, Abs format (unit mm)*
G04 Created by KiCad (PCBNEW 4.0.7) date 03/27/18 19:04:13*
%MOMM*%
%LPD*%
G01*
G04 APERTURE LIST*
%ADD10C,0.100000*%
%ADD11C,1.524000*%
%ADD12C,0.600000*%
%ADD13C,0.406400*%
%ADD14C,0.254000*%
G04 APERTURE END LIST*
D10*
D11*
X189230000Y-94996000D03*
X191770000Y-94996000D03*
X193421000Y-128524000D03*
X190881000Y-128524000D03*
X188341000Y-128524000D03*
X177673000Y-128524000D03*
X175133000Y-128524000D03*
X172847000Y-102743000D03*
X172847000Y-105283000D03*
X172847000Y-107823000D03*
X172847000Y-110363000D03*
X172847000Y-112903000D03*
X172847000Y-115443000D03*
X172847000Y-117983000D03*
X172847000Y-120523000D03*
X195707000Y-102743000D03*
X195707000Y-105283000D03*
X195707000Y-107823000D03*
X195707000Y-110363000D03*
X195707000Y-112903000D03*
X195707000Y-115443000D03*
X195707000Y-117983000D03*
X195707000Y-120523000D03*
D12*
X178435000Y-90043000D03*
X177673000Y-115951000D03*
D13*
X178435000Y-90043000D02*
X184277000Y-90043000D01*
X184277000Y-90043000D02*
X189230000Y-94996000D01*
X195707000Y-102743000D02*
X172847000Y-102743000D01*
X190881000Y-128524000D02*
X190881000Y-117729000D01*
X190881000Y-117729000D02*
X195707000Y-112903000D01*
X177673000Y-115951000D02*
X177673000Y-128524000D01*
D14*
G36*
X202295777Y-82534144D02*
X202390539Y-82597461D01*
X202453856Y-82692223D01*
X202490000Y-82873930D01*
X202490000Y-140646070D01*
X202453856Y-140827777D01*
X202390539Y-140922539D01*
X202295777Y-140985856D01*
X202114069Y-141022000D01*
X166185930Y-141022000D01*
X166004223Y-140985856D01*
X165909461Y-140922539D01*
X165846144Y-140827777D01*
X165810000Y-140646069D01*
X165810000Y-137627373D01*
X171629591Y-137627373D01*
X171988123Y-138495086D01*
X172651422Y-139159544D01*
X173518508Y-139519589D01*
X174457373Y-139520409D01*
X175325086Y-139161877D01*
X175989544Y-138498578D01*
X176349589Y-137631492D01*
X176349589Y-137631373D01*
X176457591Y-137631373D01*
X176816123Y-138499086D01*
X177479422Y-139163544D01*
X178346508Y-139523589D01*
X179285373Y-139524409D01*
X180153086Y-139165877D01*
X180817544Y-138502578D01*
X181177589Y-137635492D01*
X181177592Y-137631373D01*
X184835591Y-137631373D01*
X185194123Y-138499086D01*
X185857422Y-139163544D01*
X186724508Y-139523589D01*
X187663373Y-139524409D01*
X188531086Y-139165877D01*
X189195544Y-138502578D01*
X189555589Y-137635492D01*
X189555592Y-137631373D01*
X192205591Y-137631373D01*
X192564123Y-138499086D01*
X193227422Y-139163544D01*
X194094508Y-139523589D01*
X195033373Y-139524409D01*
X195901086Y-139165877D01*
X196565544Y-138502578D01*
X196925589Y-137635492D01*
X196926409Y-136696627D01*
X196567877Y-135828914D01*
X195904578Y-135164456D01*
X195037492Y-134804411D01*
X194098627Y-134803591D01*
X193230914Y-135162123D01*
X192566456Y-135825422D01*
X192206411Y-136692508D01*
X192205591Y-137631373D01*
X189555592Y-137631373D01*
X189556409Y-136696627D01*
X189197877Y-135828914D01*
X188534578Y-135164456D01*
X187667492Y-134804411D01*
X186728627Y-134803591D01*
X185860914Y-135162123D01*
X185196456Y-135825422D01*
X184836411Y-136692508D01*
X184835591Y-137631373D01*
X181177592Y-137631373D01*
X181178409Y-136696627D01*
X180819877Y-135828914D01*
X180156578Y-135164456D01*
X179289492Y-134804411D01*
X178350627Y-134803591D01*
X177482914Y-135162123D01*
X176818456Y-135825422D01*
X176458411Y-136692508D01*
X176457591Y-137631373D01*
X176349589Y-137631373D01*
X176350409Y-136692627D01*
X175991877Y-135824914D01*
X175328578Y-135160456D01*
X174461492Y-134800411D01*
X173522627Y-134799591D01*
X172654914Y-135158123D01*
X171990456Y-135821422D01*
X171630411Y-136688508D01*
X171629591Y-137627373D01*
X165810000Y-137627373D01*
X165810000Y-128800661D01*
X173735758Y-128800661D01*
X173947990Y-129314303D01*
X174340630Y-129707629D01*
X174853900Y-129920757D01*
X175409661Y-129921242D01*
X175923303Y-129709010D01*
X176316629Y-129316370D01*
X176402949Y-129108488D01*
X176487990Y-129314303D01*
X176880630Y-129707629D01*
X177393900Y-129920757D01*
X177949661Y-129921242D01*
X178463303Y-129709010D01*
X178856629Y-129316370D01*
X179069757Y-128803100D01*
X179069759Y-128800661D01*
X189483758Y-128800661D01*
X189695990Y-129314303D01*
X190088630Y-129707629D01*
X190601900Y-129920757D01*
X191157661Y-129921242D01*
X191671303Y-129709010D01*
X192064629Y-129316370D01*
X192150949Y-129108488D01*
X192235990Y-129314303D01*
X192628630Y-129707629D01*
X193141900Y-129920757D01*
X193697661Y-129921242D01*
X194211303Y-129709010D01*
X194604629Y-129316370D01*
X194817757Y-128803100D01*
X194818242Y-128247339D01*
X194606010Y-127733697D01*
X194213370Y-127340371D01*
X193700100Y-127127243D01*
X193144339Y-127126758D01*
X192630697Y-127338990D01*
X192237371Y-127731630D01*
X192151051Y-127939512D01*
X192066010Y-127733697D01*
X191719200Y-127386281D01*
X191719200Y-118076194D01*
X194309962Y-115485432D01*
X194309758Y-115719661D01*
X194521990Y-116233303D01*
X194914630Y-116626629D01*
X195122512Y-116712949D01*
X194916697Y-116797990D01*
X194523371Y-117190630D01*
X194310243Y-117703900D01*
X194309758Y-118259661D01*
X194521990Y-118773303D01*
X194914630Y-119166629D01*
X195122512Y-119252949D01*
X194916697Y-119337990D01*
X194523371Y-119730630D01*
X194310243Y-120243900D01*
X194309758Y-120799661D01*
X194521990Y-121313303D01*
X194914630Y-121706629D01*
X195427900Y-121919757D01*
X195983661Y-121920242D01*
X196497303Y-121708010D01*
X196890629Y-121315370D01*
X197103757Y-120802100D01*
X197104242Y-120246339D01*
X196892010Y-119732697D01*
X196499370Y-119339371D01*
X196291488Y-119253051D01*
X196497303Y-119168010D01*
X196890629Y-118775370D01*
X197103757Y-118262100D01*
X197104242Y-117706339D01*
X196892010Y-117192697D01*
X196499370Y-116799371D01*
X196291488Y-116713051D01*
X196497303Y-116628010D01*
X196890629Y-116235370D01*
X197103757Y-115722100D01*
X197104242Y-115166339D01*
X196892010Y-114652697D01*
X196499370Y-114259371D01*
X196291488Y-114173051D01*
X196497303Y-114088010D01*
X196890629Y-113695370D01*
X197103757Y-113182100D01*
X197104242Y-112626339D01*
X196892010Y-112112697D01*
X196499370Y-111719371D01*
X196291488Y-111633051D01*
X196497303Y-111548010D01*
X196890629Y-111155370D01*
X197103757Y-110642100D01*
X197104242Y-110086339D01*
X196892010Y-109572697D01*
X196499370Y-109179371D01*
X196291488Y-109093051D01*
X196497303Y-109008010D01*
X196890629Y-108615370D01*
X197103757Y-108102100D01*
X197104242Y-107546339D01*
X196892010Y-107032697D01*
X196499370Y-106639371D01*
X195986100Y-106426243D01*
X195430339Y-106425758D01*
X194916697Y-106637990D01*
X194523371Y-107030630D01*
X194310243Y-107543900D01*
X194309758Y-108099661D01*
X194521990Y-108613303D01*
X194914630Y-109006629D01*
X195122512Y-109092949D01*
X194916697Y-109177990D01*
X194523371Y-109570630D01*
X194310243Y-110083900D01*
X194309758Y-110639661D01*
X194521990Y-111153303D01*
X194914630Y-111546629D01*
X195122512Y-111632949D01*
X194916697Y-111717990D01*
X194523371Y-112110630D01*
X194310243Y-112623900D01*
X194309815Y-113114791D01*
X190288303Y-117136303D01*
X190106604Y-117408234D01*
X190106604Y-117408235D01*
X190042800Y-117729000D01*
X190042800Y-127386803D01*
X189697371Y-127731630D01*
X189484243Y-128244900D01*
X189483758Y-128800661D01*
X179069759Y-128800661D01*
X179070242Y-128247339D01*
X178858010Y-127733697D01*
X178511200Y-127386281D01*
X178511200Y-116370528D01*
X178607838Y-116137799D01*
X178608162Y-115765833D01*
X178466117Y-115422057D01*
X178203327Y-115158808D01*
X177859799Y-115016162D01*
X177487833Y-115015838D01*
X177144057Y-115157883D01*
X176880808Y-115420673D01*
X176738162Y-115764201D01*
X176737838Y-116136167D01*
X176834800Y-116370834D01*
X176834800Y-127386803D01*
X176489371Y-127731630D01*
X176403051Y-127939512D01*
X176318010Y-127733697D01*
X175925370Y-127340371D01*
X175412100Y-127127243D01*
X174856339Y-127126758D01*
X174342697Y-127338990D01*
X173949371Y-127731630D01*
X173736243Y-128244900D01*
X173735758Y-128800661D01*
X165810000Y-128800661D01*
X165810000Y-103019661D01*
X171449758Y-103019661D01*
X171661990Y-103533303D01*
X172054630Y-103926629D01*
X172262512Y-104012949D01*
X172056697Y-104097990D01*
X171663371Y-104490630D01*
X171450243Y-105003900D01*
X171449758Y-105559661D01*
X171661990Y-106073303D01*
X172054630Y-106466629D01*
X172262512Y-106552949D01*
X172056697Y-106637990D01*
X171663371Y-107030630D01*
X171450243Y-107543900D01*
X171449758Y-108099661D01*
X171661990Y-108613303D01*
X172054630Y-109006629D01*
X172262512Y-109092949D01*
X172056697Y-109177990D01*
X171663371Y-109570630D01*
X171450243Y-110083900D01*
X171449758Y-110639661D01*
X171661990Y-111153303D01*
X172054630Y-111546629D01*
X172262512Y-111632949D01*
X172056697Y-111717990D01*
X171663371Y-112110630D01*
X171450243Y-112623900D01*
X171449758Y-113179661D01*
X171661990Y-113693303D01*
X172054630Y-114086629D01*
X172262512Y-114172949D01*
X172056697Y-114257990D01*
X171663371Y-114650630D01*
X171450243Y-115163900D01*
X171449758Y-115719661D01*
X171661990Y-116233303D01*
X172054630Y-116626629D01*
X172262512Y-116712949D01*
X172056697Y-116797990D01*
X171663371Y-117190630D01*
X171450243Y-117703900D01*
X171449758Y-118259661D01*
X171661990Y-118773303D01*
X172054630Y-119166629D01*
X172262512Y-119252949D01*
X172056697Y-119337990D01*
X171663371Y-119730630D01*
X171450243Y-120243900D01*
X171449758Y-120799661D01*
X171661990Y-121313303D01*
X172054630Y-121706629D01*
X172567900Y-121919757D01*
X173123661Y-121920242D01*
X173637303Y-121708010D01*
X174030629Y-121315370D01*
X174243757Y-120802100D01*
X174244242Y-120246339D01*
X174032010Y-119732697D01*
X173639370Y-119339371D01*
X173431488Y-119253051D01*
X173637303Y-119168010D01*
X174030629Y-118775370D01*
X174243757Y-118262100D01*
X174244242Y-117706339D01*
X174032010Y-117192697D01*
X173639370Y-116799371D01*
X173431488Y-116713051D01*
X173637303Y-116628010D01*
X174030629Y-116235370D01*
X174243757Y-115722100D01*
X174244242Y-115166339D01*
X174032010Y-114652697D01*
X173639370Y-114259371D01*
X173431488Y-114173051D01*
X173637303Y-114088010D01*
X174030629Y-113695370D01*
X174243757Y-113182100D01*
X174244242Y-112626339D01*
X174032010Y-112112697D01*
X173639370Y-111719371D01*
X173431488Y-111633051D01*
X173637303Y-111548010D01*
X174030629Y-111155370D01*
X174243757Y-110642100D01*
X174244242Y-110086339D01*
X174032010Y-109572697D01*
X173639370Y-109179371D01*
X173431488Y-109093051D01*
X173637303Y-109008010D01*
X174030629Y-108615370D01*
X174243757Y-108102100D01*
X174244242Y-107546339D01*
X174032010Y-107032697D01*
X173639370Y-106639371D01*
X173431488Y-106553051D01*
X173637303Y-106468010D01*
X174030629Y-106075370D01*
X174243757Y-105562100D01*
X174244242Y-105006339D01*
X174032010Y-104492697D01*
X173639370Y-104099371D01*
X173431488Y-104013051D01*
X173637303Y-103928010D01*
X173984719Y-103581200D01*
X194569803Y-103581200D01*
X194914630Y-103926629D01*
X195427900Y-104139757D01*
X195983661Y-104140242D01*
X196497303Y-103928010D01*
X196890629Y-103535370D01*
X197103757Y-103022100D01*
X197104242Y-102466339D01*
X196892010Y-101952697D01*
X196499370Y-101559371D01*
X195986100Y-101346243D01*
X195430339Y-101345758D01*
X194916697Y-101557990D01*
X194569281Y-101904800D01*
X173984197Y-101904800D01*
X173639370Y-101559371D01*
X173126100Y-101346243D01*
X172570339Y-101345758D01*
X172056697Y-101557990D01*
X171663371Y-101950630D01*
X171450243Y-102463900D01*
X171449758Y-103019661D01*
X165810000Y-103019661D01*
X165810000Y-90228167D01*
X177499838Y-90228167D01*
X177641883Y-90571943D01*
X177904673Y-90835192D01*
X178248201Y-90977838D01*
X178620167Y-90978162D01*
X178854834Y-90881200D01*
X183929806Y-90881200D01*
X187833184Y-94784578D01*
X187832758Y-95272661D01*
X188044990Y-95786303D01*
X188437630Y-96179629D01*
X188950900Y-96392757D01*
X189506661Y-96393242D01*
X190020303Y-96181010D01*
X190413629Y-95788370D01*
X190626757Y-95275100D01*
X190627242Y-94719339D01*
X190415010Y-94205697D01*
X190022370Y-93812371D01*
X189509100Y-93599243D01*
X189018209Y-93598815D01*
X184869697Y-89450303D01*
X184597766Y-89268604D01*
X184277000Y-89204800D01*
X178854528Y-89204800D01*
X178621799Y-89108162D01*
X178249833Y-89107838D01*
X177906057Y-89249883D01*
X177642808Y-89512673D01*
X177500162Y-89856201D01*
X177499838Y-90228167D01*
X165810000Y-90228167D01*
X165810000Y-86823373D01*
X185724591Y-86823373D01*
X186083123Y-87691086D01*
X186746422Y-88355544D01*
X187613508Y-88715589D01*
X188552373Y-88716409D01*
X189420086Y-88357877D01*
X190084544Y-87694578D01*
X190444589Y-86827492D01*
X190444589Y-86827373D01*
X190552591Y-86827373D01*
X190911123Y-87695086D01*
X191574422Y-88359544D01*
X192441508Y-88719589D01*
X193380373Y-88720409D01*
X194248086Y-88361877D01*
X194912544Y-87698578D01*
X195272589Y-86831492D01*
X195273409Y-85892627D01*
X194914877Y-85024914D01*
X194251578Y-84360456D01*
X193384492Y-84000411D01*
X192445627Y-83999591D01*
X191577914Y-84358123D01*
X190913456Y-85021422D01*
X190553411Y-85888508D01*
X190552591Y-86827373D01*
X190444589Y-86827373D01*
X190445409Y-85888627D01*
X190086877Y-85020914D01*
X189423578Y-84356456D01*
X188556492Y-83996411D01*
X187617627Y-83995591D01*
X186749914Y-84354123D01*
X186085456Y-85017422D01*
X185725411Y-85884508D01*
X185724591Y-86823373D01*
X165810000Y-86823373D01*
X165810000Y-82873931D01*
X165846144Y-82692223D01*
X165909461Y-82597461D01*
X166004223Y-82534144D01*
X166185930Y-82498000D01*
X202114069Y-82498000D01*
X202295777Y-82534144D01*
X202295777Y-82534144D01*
G37*
X202295777Y-82534144D02*
X202390539Y-82597461D01*
X202453856Y-82692223D01*
X202490000Y-82873930D01*
X202490000Y-140646070D01*
X202453856Y-140827777D01*
X202390539Y-140922539D01*
X202295777Y-140985856D01*
X202114069Y-141022000D01*
X166185930Y-141022000D01*
X166004223Y-140985856D01*
X165909461Y-140922539D01*
X165846144Y-140827777D01*
X165810000Y-140646069D01*
X165810000Y-137627373D01*
X171629591Y-137627373D01*
X171988123Y-138495086D01*
X172651422Y-139159544D01*
X173518508Y-139519589D01*
X174457373Y-139520409D01*
X175325086Y-139161877D01*
X175989544Y-138498578D01*
X176349589Y-137631492D01*
X176349589Y-137631373D01*
X176457591Y-137631373D01*
X176816123Y-138499086D01*
X177479422Y-139163544D01*
X178346508Y-139523589D01*
X179285373Y-139524409D01*
X180153086Y-139165877D01*
X180817544Y-138502578D01*
X181177589Y-137635492D01*
X181177592Y-137631373D01*
X184835591Y-137631373D01*
X185194123Y-138499086D01*
X185857422Y-139163544D01*
X186724508Y-139523589D01*
X187663373Y-139524409D01*
X188531086Y-139165877D01*
X189195544Y-138502578D01*
X189555589Y-137635492D01*
X189555592Y-137631373D01*
X192205591Y-137631373D01*
X192564123Y-138499086D01*
X193227422Y-139163544D01*
X194094508Y-139523589D01*
X195033373Y-139524409D01*
X195901086Y-139165877D01*
X196565544Y-138502578D01*
X196925589Y-137635492D01*
X196926409Y-136696627D01*
X196567877Y-135828914D01*
X195904578Y-135164456D01*
X195037492Y-134804411D01*
X194098627Y-134803591D01*
X193230914Y-135162123D01*
X192566456Y-135825422D01*
X192206411Y-136692508D01*
X192205591Y-137631373D01*
X189555592Y-137631373D01*
X189556409Y-136696627D01*
X189197877Y-135828914D01*
X188534578Y-135164456D01*
X187667492Y-134804411D01*
X186728627Y-134803591D01*
X185860914Y-135162123D01*
X185196456Y-135825422D01*
X184836411Y-136692508D01*
X184835591Y-137631373D01*
X181177592Y-137631373D01*
X181178409Y-136696627D01*
X180819877Y-135828914D01*
X180156578Y-135164456D01*
X179289492Y-134804411D01*
X178350627Y-134803591D01*
X177482914Y-135162123D01*
X176818456Y-135825422D01*
X176458411Y-136692508D01*
X176457591Y-137631373D01*
X176349589Y-137631373D01*
X176350409Y-136692627D01*
X175991877Y-135824914D01*
X175328578Y-135160456D01*
X174461492Y-134800411D01*
X173522627Y-134799591D01*
X172654914Y-135158123D01*
X171990456Y-135821422D01*
X171630411Y-136688508D01*
X171629591Y-137627373D01*
X165810000Y-137627373D01*
X165810000Y-128800661D01*
X173735758Y-128800661D01*
X173947990Y-129314303D01*
X174340630Y-129707629D01*
X174853900Y-129920757D01*
X175409661Y-129921242D01*
X175923303Y-129709010D01*
X176316629Y-129316370D01*
X176402949Y-129108488D01*
X176487990Y-129314303D01*
X176880630Y-129707629D01*
X177393900Y-129920757D01*
X177949661Y-129921242D01*
X178463303Y-129709010D01*
X178856629Y-129316370D01*
X179069757Y-128803100D01*
X179069759Y-128800661D01*
X189483758Y-128800661D01*
X189695990Y-129314303D01*
X190088630Y-129707629D01*
X190601900Y-129920757D01*
X191157661Y-129921242D01*
X191671303Y-129709010D01*
X192064629Y-129316370D01*
X192150949Y-129108488D01*
X192235990Y-129314303D01*
X192628630Y-129707629D01*
X193141900Y-129920757D01*
X193697661Y-129921242D01*
X194211303Y-129709010D01*
X194604629Y-129316370D01*
X194817757Y-128803100D01*
X194818242Y-128247339D01*
X194606010Y-127733697D01*
X194213370Y-127340371D01*
X193700100Y-127127243D01*
X193144339Y-127126758D01*
X192630697Y-127338990D01*
X192237371Y-127731630D01*
X192151051Y-127939512D01*
X192066010Y-127733697D01*
X191719200Y-127386281D01*
X191719200Y-118076194D01*
X194309962Y-115485432D01*
X194309758Y-115719661D01*
X194521990Y-116233303D01*
X194914630Y-116626629D01*
X195122512Y-116712949D01*
X194916697Y-116797990D01*
X194523371Y-117190630D01*
X194310243Y-117703900D01*
X194309758Y-118259661D01*
X194521990Y-118773303D01*
X194914630Y-119166629D01*
X195122512Y-119252949D01*
X194916697Y-119337990D01*
X194523371Y-119730630D01*
X194310243Y-120243900D01*
X194309758Y-120799661D01*
X194521990Y-121313303D01*
X194914630Y-121706629D01*
X195427900Y-121919757D01*
X195983661Y-121920242D01*
X196497303Y-121708010D01*
X196890629Y-121315370D01*
X197103757Y-120802100D01*
X197104242Y-120246339D01*
X196892010Y-119732697D01*
X196499370Y-119339371D01*
X196291488Y-119253051D01*
X196497303Y-119168010D01*
X196890629Y-118775370D01*
X197103757Y-118262100D01*
X197104242Y-117706339D01*
X196892010Y-117192697D01*
X196499370Y-116799371D01*
X196291488Y-116713051D01*
X196497303Y-116628010D01*
X196890629Y-116235370D01*
X197103757Y-115722100D01*
X197104242Y-115166339D01*
X196892010Y-114652697D01*
X196499370Y-114259371D01*
X196291488Y-114173051D01*
X196497303Y-114088010D01*
X196890629Y-113695370D01*
X197103757Y-113182100D01*
X197104242Y-112626339D01*
X196892010Y-112112697D01*
X196499370Y-111719371D01*
X196291488Y-111633051D01*
X196497303Y-111548010D01*
X196890629Y-111155370D01*
X197103757Y-110642100D01*
X197104242Y-110086339D01*
X196892010Y-109572697D01*
X196499370Y-109179371D01*
X196291488Y-109093051D01*
X196497303Y-109008010D01*
X196890629Y-108615370D01*
X197103757Y-108102100D01*
X197104242Y-107546339D01*
X196892010Y-107032697D01*
X196499370Y-106639371D01*
X195986100Y-106426243D01*
X195430339Y-106425758D01*
X194916697Y-106637990D01*
X194523371Y-107030630D01*
X194310243Y-107543900D01*
X194309758Y-108099661D01*
X194521990Y-108613303D01*
X194914630Y-109006629D01*
X195122512Y-109092949D01*
X194916697Y-109177990D01*
X194523371Y-109570630D01*
X194310243Y-110083900D01*
X194309758Y-110639661D01*
X194521990Y-111153303D01*
X194914630Y-111546629D01*
X195122512Y-111632949D01*
X194916697Y-111717990D01*
X194523371Y-112110630D01*
X194310243Y-112623900D01*
X194309815Y-113114791D01*
X190288303Y-117136303D01*
X190106604Y-117408234D01*
X190106604Y-117408235D01*
X190042800Y-117729000D01*
X190042800Y-127386803D01*
X189697371Y-127731630D01*
X189484243Y-128244900D01*
X189483758Y-128800661D01*
X179069759Y-128800661D01*
X179070242Y-128247339D01*
X178858010Y-127733697D01*
X178511200Y-127386281D01*
X178511200Y-116370528D01*
X178607838Y-116137799D01*
X178608162Y-115765833D01*
X178466117Y-115422057D01*
X178203327Y-115158808D01*
X177859799Y-115016162D01*
X177487833Y-115015838D01*
X177144057Y-115157883D01*
X176880808Y-115420673D01*
X176738162Y-115764201D01*
X176737838Y-116136167D01*
X176834800Y-116370834D01*
X176834800Y-127386803D01*
X176489371Y-127731630D01*
X176403051Y-127939512D01*
X176318010Y-127733697D01*
X175925370Y-127340371D01*
X175412100Y-127127243D01*
X174856339Y-127126758D01*
X174342697Y-127338990D01*
X173949371Y-127731630D01*
X173736243Y-128244900D01*
X173735758Y-128800661D01*
X165810000Y-128800661D01*
X165810000Y-103019661D01*
X171449758Y-103019661D01*
X171661990Y-103533303D01*
X172054630Y-103926629D01*
X172262512Y-104012949D01*
X172056697Y-104097990D01*
X171663371Y-104490630D01*
X171450243Y-105003900D01*
X171449758Y-105559661D01*
X171661990Y-106073303D01*
X172054630Y-106466629D01*
X172262512Y-106552949D01*
X172056697Y-106637990D01*
X171663371Y-107030630D01*
X171450243Y-107543900D01*
X171449758Y-108099661D01*
X171661990Y-108613303D01*
X172054630Y-109006629D01*
X172262512Y-109092949D01*
X172056697Y-109177990D01*
X171663371Y-109570630D01*
X171450243Y-110083900D01*
X171449758Y-110639661D01*
X171661990Y-111153303D01*
X172054630Y-111546629D01*
X172262512Y-111632949D01*
X172056697Y-111717990D01*
X171663371Y-112110630D01*
X171450243Y-112623900D01*
X171449758Y-113179661D01*
X171661990Y-113693303D01*
X172054630Y-114086629D01*
X172262512Y-114172949D01*
X172056697Y-114257990D01*
X171663371Y-114650630D01*
X171450243Y-115163900D01*
X171449758Y-115719661D01*
X171661990Y-116233303D01*
X172054630Y-116626629D01*
X172262512Y-116712949D01*
X172056697Y-116797990D01*
X171663371Y-117190630D01*
X171450243Y-117703900D01*
X171449758Y-118259661D01*
X171661990Y-118773303D01*
X172054630Y-119166629D01*
X172262512Y-119252949D01*
X172056697Y-119337990D01*
X171663371Y-119730630D01*
X171450243Y-120243900D01*
X171449758Y-120799661D01*
X171661990Y-121313303D01*
X172054630Y-121706629D01*
X172567900Y-121919757D01*
X173123661Y-121920242D01*
X173637303Y-121708010D01*
X174030629Y-121315370D01*
X174243757Y-120802100D01*
X174244242Y-120246339D01*
X174032010Y-119732697D01*
X173639370Y-119339371D01*
X173431488Y-119253051D01*
X173637303Y-119168010D01*
X174030629Y-118775370D01*
X174243757Y-118262100D01*
X174244242Y-117706339D01*
X174032010Y-117192697D01*
X173639370Y-116799371D01*
X173431488Y-116713051D01*
X173637303Y-116628010D01*
X174030629Y-116235370D01*
X174243757Y-115722100D01*
X174244242Y-115166339D01*
X174032010Y-114652697D01*
X173639370Y-114259371D01*
X173431488Y-114173051D01*
X173637303Y-114088010D01*
X174030629Y-113695370D01*
X174243757Y-113182100D01*
X174244242Y-112626339D01*
X174032010Y-112112697D01*
X173639370Y-111719371D01*
X173431488Y-111633051D01*
X173637303Y-111548010D01*
X174030629Y-111155370D01*
X174243757Y-110642100D01*
X174244242Y-110086339D01*
X174032010Y-109572697D01*
X173639370Y-109179371D01*
X173431488Y-109093051D01*
X173637303Y-109008010D01*
X174030629Y-108615370D01*
X174243757Y-108102100D01*
X174244242Y-107546339D01*
X174032010Y-107032697D01*
X173639370Y-106639371D01*
X173431488Y-106553051D01*
X173637303Y-106468010D01*
X174030629Y-106075370D01*
X174243757Y-105562100D01*
X174244242Y-105006339D01*
X174032010Y-104492697D01*
X173639370Y-104099371D01*
X173431488Y-104013051D01*
X173637303Y-103928010D01*
X173984719Y-103581200D01*
X194569803Y-103581200D01*
X194914630Y-103926629D01*
X195427900Y-104139757D01*
X195983661Y-104140242D01*
X196497303Y-103928010D01*
X196890629Y-103535370D01*
X197103757Y-103022100D01*
X197104242Y-102466339D01*
X196892010Y-101952697D01*
X196499370Y-101559371D01*
X195986100Y-101346243D01*
X195430339Y-101345758D01*
X194916697Y-101557990D01*
X194569281Y-101904800D01*
X173984197Y-101904800D01*
X173639370Y-101559371D01*
X173126100Y-101346243D01*
X172570339Y-101345758D01*
X172056697Y-101557990D01*
X171663371Y-101950630D01*
X171450243Y-102463900D01*
X171449758Y-103019661D01*
X165810000Y-103019661D01*
X165810000Y-90228167D01*
X177499838Y-90228167D01*
X177641883Y-90571943D01*
X177904673Y-90835192D01*
X178248201Y-90977838D01*
X178620167Y-90978162D01*
X178854834Y-90881200D01*
X183929806Y-90881200D01*
X187833184Y-94784578D01*
X187832758Y-95272661D01*
X188044990Y-95786303D01*
X188437630Y-96179629D01*
X188950900Y-96392757D01*
X189506661Y-96393242D01*
X190020303Y-96181010D01*
X190413629Y-95788370D01*
X190626757Y-95275100D01*
X190627242Y-94719339D01*
X190415010Y-94205697D01*
X190022370Y-93812371D01*
X189509100Y-93599243D01*
X189018209Y-93598815D01*
X184869697Y-89450303D01*
X184597766Y-89268604D01*
X184277000Y-89204800D01*
X178854528Y-89204800D01*
X178621799Y-89108162D01*
X178249833Y-89107838D01*
X177906057Y-89249883D01*
X177642808Y-89512673D01*
X177500162Y-89856201D01*
X177499838Y-90228167D01*
X165810000Y-90228167D01*
X165810000Y-86823373D01*
X185724591Y-86823373D01*
X186083123Y-87691086D01*
X186746422Y-88355544D01*
X187613508Y-88715589D01*
X188552373Y-88716409D01*
X189420086Y-88357877D01*
X190084544Y-87694578D01*
X190444589Y-86827492D01*
X190444589Y-86827373D01*
X190552591Y-86827373D01*
X190911123Y-87695086D01*
X191574422Y-88359544D01*
X192441508Y-88719589D01*
X193380373Y-88720409D01*
X194248086Y-88361877D01*
X194912544Y-87698578D01*
X195272589Y-86831492D01*
X195273409Y-85892627D01*
X194914877Y-85024914D01*
X194251578Y-84360456D01*
X193384492Y-84000411D01*
X192445627Y-83999591D01*
X191577914Y-84358123D01*
X190913456Y-85021422D01*
X190553411Y-85888508D01*
X190552591Y-86827373D01*
X190444589Y-86827373D01*
X190445409Y-85888627D01*
X190086877Y-85020914D01*
X189423578Y-84356456D01*
X188556492Y-83996411D01*
X187617627Y-83995591D01*
X186749914Y-84354123D01*
X186085456Y-85017422D01*
X185725411Y-85884508D01*
X185724591Y-86823373D01*
X165810000Y-86823373D01*
X165810000Y-82873931D01*
X165846144Y-82692223D01*
X165909461Y-82597461D01*
X166004223Y-82534144D01*
X166185930Y-82498000D01*
X202114069Y-82498000D01*
X202295777Y-82534144D01*
M02*
